<?xml version="1.0" encoding="UTF-8"?>
<svg version="1.1" xmlns="http://www.w3.org/2000/svg" width="1874" height="563">
<path d="M0 0 C1.98614005 -0.00430978 3.97228009 -0.00862009 5.95842004 -0.0129745 C11.50186884 -0.02471299 17.04530782 -0.03229442 22.58876777 -0.0357697 C28.9077165 -0.03975962 35.2265126 -0.05186901 41.54541016 -0.078125 C75.18845209 -0.21478077 108.65054366 0.23385554 142.20337677 3.01664734 C144.27733343 3.18855395 146.35175296 3.3548519 148.4262085 3.52062988 C155.3822332 4.08131883 162.32490823 4.72832833 169.265625 5.453125 C170.26645111 5.55539398 171.26727722 5.65766296 172.2984314 5.76303101 C241.58991848 12.88319205 314.14570542 23.10065181 380.453125 45.203125 C380.453125 45.863125 380.453125 46.523125 380.453125 47.203125 C365.30085206 55.90514335 350.01440615 64.25647818 334.453125 72.203125 C333.33615234 72.77788574 332.21917969 73.35264648 331.06835938 73.94482422 C257.98955307 111.48295761 179.44611043 139.0204839 14.453125 166.203125 C13.79999329 166.24442535 13.14686157 166.28572571 12.47393799 166.32827759 C0.21276571 167.08800805 -12.01314049 167.40639172 -24.296875 167.390625 C-25.1805072 167.39002075 -26.0641394 167.3894165 -26.97454834 167.38879395 C-43.5665623 167.358311 -60.01888071 166.76489552 -76.546875 165.203125 C-78.26777344 165.04166992 -78.26777344 165.04166992 -80.0234375 164.87695312 C-97.28064775 163.15317987 -114.23858712 160.02933584 -131.2578125 156.7734375 C-133.58761868 156.33050099 -135.91749527 155.88793468 -138.24743652 155.44570923 C-143.17142119 154.5107394 -148.09508113 153.57408634 -153.01849365 152.6361084 C-165.39039029 150.27993058 -177.76550932 147.94076397 -190.140625 145.6015625 C-191.40743921 145.36208578 -192.67425343 145.12260906 -193.97945595 144.87587547 C-250.40024852 134.21226648 -306.84635052 123.70581916 -363.35626602 113.52410221 C-365.46616262 113.1439068 -367.57602717 112.76353402 -369.68588257 112.38311005 C-405.05757704 106.00281172 -405.05757704 106.00281172 -440.45751953 99.78173828 C-442.094985 99.49788379 -442.094985 99.49788379 -443.76553059 99.20829487 C-448.85584078 98.3269582 -453.94678623 97.44953168 -459.0388031 96.57810974 C-459.93894323 96.42321768 -460.83908337 96.26832561 -461.76650047 96.10873985 C-463.42798362 95.82286203 -465.0897847 95.53882315 -466.75196266 95.25701332 C-469.77714588 94.73525479 -472.62932366 94.17564211 -475.546875 93.203125 C-475.546875 92.543125 -475.546875 91.883125 -475.546875 91.203125 C-387.32405691 55.98278748 -292.92571863 33.24745729 -48.91534901 1.34601784 C-46.76741008 1.21643014 -44.62021219 1.07822743 -42.47291565 0.93849182 C-28.31933329 0.06222686 -14.17663691 0.0211224 0 0 Z " fill="#8C8D8F" transform="translate(1466.546875,-0.203125)"/>
<path d="M0 0 C1.68246826 0.02682861 1.68246826 0.02682861 3.39892578 0.05419922 C98.49838639 1.73163273 192.99002019 18.32340642 396.08440208 62.11113739 C481.07626281 81.47375719 481.07626281 81.47375719 567 96 C567.73623596 96.10358826 568.47247192 96.20717651 569.23101807 96.31390381 C578.79223473 97.65192211 588.36369576 98.79949919 597.96722412 99.78710938 C599.99703929 99.99968993 602.02509362 100.22506328 604.05322266 100.453125 C649.99478735 105.53809749 698.96664855 105.80736131 744.87628174 100.25323486 C747.13492128 99.98391182 749.39496721 99.73054638 751.65576172 99.47998047 C806.82104881 93.3283417 860.4746916 80.34464415 914 66 C913 69 913 69 910.70043945 70.26757812 C909.68167725 70.68458984 908.66291504 71.10160156 907.61328125 71.53125 C905.88779053 72.244021 905.88779053 72.244021 904.12744141 72.97119141 C902.85611615 73.48159675 901.58445909 73.99117627 900.3125 74.5 C898.9964933 75.03412387 897.68057673 75.56846988 896.36474609 76.10302734 C820.31559549 106.82233777 740.37864704 126.50818766 624 130 C623.02772461 129.98211426 622.05544922 129.96422852 621.05371094 129.94580078 C533.68282823 128.18086257 448.38830919 110.32441507 363.06330109 93.03732967 C342.21356908 88.81406558 321.35820345 84.61871057 300.5 80.4375 C299.4452372 80.22604717 298.3904744 80.01459435 297.30374908 79.79673386 C262.59704557 72.84164656 227.87103356 66.08735342 193 60 C191.97100586 59.81947083 190.94201172 59.63894165 189.88183594 59.45294189 C139.51069884 50.62069621 88.98367346 43.18129528 38 39 C37.19560486 38.93210266 36.39120972 38.86420532 35.56243896 38.79425049 C-8.96394289 35.0467274 -55.50799075 34.86081331 -100 39 C-100.77202759 39.07023376 -101.54405518 39.14046753 -102.33947754 39.21282959 C-121.28940386 40.93949028 -140.23611963 42.77915187 -159 46 C-157.83827271 45.87939209 -157.83827271 45.87939209 -156.65307617 45.75634766 C-64.70526307 36.38986986 26.37572908 42.46988132 340.6427002 101.23337936 C424.91848336 120.18202012 509.8624075 138.85026017 859 107 C859 107.99 859 108.98 859 110 C785.33240894 143.47710706 708.15236642 163.53650903 606.0390625 169.203125 C604.65220614 169.21015447 603.26535006 169.21724121 601.87849426 169.22438049 C597.46065811 169.24379558 593.04287451 169.24881703 588.625 169.25 C587.49130415 169.25066278 587.49130415 169.25066278 586.33470535 169.25133896 C561.10918176 169.25906014 536.10841832 168.58993182 511 166 C510.15632874 165.91514343 509.31265747 165.83028687 508.44342041 165.74285889 C450.44098976 159.90725262 392.99135887 149.56766611 335.88671875 138.015625 C334.73278271 137.78220728 334.73278271 137.78220728 333.55553484 137.54407406 C322.3998228 135.28641199 311.24690759 133.01505252 300.09455872 130.74084473 C286.6102265 127.99113475 273.12504415 125.2456886 259.63671875 122.515625 C258.85749109 122.35787676 258.07826343 122.20012853 257.27542281 122.03760004 C232.96011799 117.11793485 208.61133413 112.40371771 184.21875 107.8828125 C183.50504612 107.75036542 182.79134223 107.61791834 182.05601096 107.48145771 C116.03335567 95.23280908 49.70151284 84.28479329 -17.3125 79.3125 C-18.1297052 79.25147095 -18.9469104 79.19044189 -19.78887939 79.12756348 C-44.24574291 77.32677686 -68.67190787 76.79219723 -93.1875 76.8125 C-93.9122628 76.81276688 -94.6370256 76.81303375 -95.38375092 76.81330872 C-118.30720188 76.82387946 -141.14558519 77.07950386 -164 79 C-164.77126221 79.06316406 -165.54252441 79.12632812 -166.3371582 79.19140625 C-252.31262934 86.26144399 -346.98338234 103.20496478 -435.52734375 177.77734375 C-437.7714421 180.46316269 -439.90490264 183.19643391 -442 186 C-442.42297363 186.56396484 -442.84594727 187.12792969 -443.28173828 187.70898438 C-448.11077632 194.18504119 -452.73064969 200.56965839 -456 208 C-457.32 208 -458.64 208 -460 208 C-458.05795759 201.51398354 -455.51212721 195.64698943 -452.3125 189.6875 C-451.64831055 188.44202393 -451.64831055 188.44202393 -450.97070312 187.17138672 C-436.48589682 160.37449506 -414.54414748 134.69528716 -390.5390625 115.984375 C-387.77758349 113.82617294 -385.15055892 111.54276997 -382.5 109.25 C-375.17759544 103.14010227 -367.3150043 97.85950306 -359.37988281 92.58300781 C-357.17139085 91.11400269 -354.97219496 89.63194904 -352.7734375 88.1484375 C-337.27172149 77.79916492 -320.7416961 69.08622952 -303.97949219 60.96533203 C-301.93918045 59.97034034 -299.91124876 58.952549 -297.8828125 57.93359375 C-224.4522005 21.55572948 -139.44194773 5.93221388 -35.625 0.4375 C-34.90545135 0.41665344 -34.18590271 0.39580688 -33.44454956 0.37432861 C-22.29194102 0.05498317 -11.15682109 -0.20371434 0 0 Z M-172 47 C-172 47.33 -172 47.66 -172 48 C-170.35 48 -168.7 48 -167 48 C-167 47.67 -167 47.34 -167 47 C-168.65 47 -170.3 47 -172 47 Z " fill="#F05928" transform="translate(765,83)"/>
<path d="M0 0 C84.27578316 18.94864076 169.2197073 37.61688081 518.3572998 5.76662064 C518.3572998 6.75662064 518.3572998 7.74662064 518.3572998 8.76662064 C444.68970874 42.24372769 367.50966622 62.30312966 265.3963623 67.96974564 C264.00950594 67.9767751 262.62264987 67.98386184 261.23579407 67.99100113 C256.81795791 68.01041622 252.40017432 68.01543767 247.9822998 68.01662064 C246.84860395 68.01728342 246.84860395 68.01728342 245.69200516 68.01795959 C220.46648157 68.02568078 195.46571812 67.35655246 170.3572998 64.76662064 C169.51362854 64.68176407 168.66995728 64.5969075 167.80072021 64.50947952 C109.79828957 58.67387325 52.34865868 48.33428674 -4.75598145 36.78224564 C-5.90991748 36.54882792 -5.90991748 36.54882792 -7.08716536 36.31069469 C-18.2428774 34.05303263 -29.3957926 31.78167316 -40.54814148 29.50746536 C-54.0324737 26.75775539 -67.51765604 24.01230923 -81.00598145 21.28224564 C-81.78520911 21.1244974 -82.56443676 20.96674916 -83.36727738 20.80422068 C-107.68258221 15.88455548 -132.03136607 11.17033835 -156.4239502 6.64943314 C-157.13765408 6.51698606 -157.85135796 6.38453897 -158.58668923 6.24807835 C-224.60934452 -6.00057029 -290.94118735 -16.94858607 -357.9552002 -21.92087936 C-359.181008 -22.01242294 -359.181008 -22.01242294 -360.43157959 -22.10581589 C-384.88844311 -23.9066025 -409.31460806 -24.44118213 -433.8302002 -24.42087936 C-434.554963 -24.42061249 -435.2797258 -24.42034561 -436.02645111 -24.42007065 C-458.94990208 -24.4094999 -481.78828538 -24.1538755 -504.6427002 -22.23337936 C-505.4139624 -22.1702153 -506.18522461 -22.10705124 -506.9798584 -22.04197311 C-592.95532953 -14.97193538 -687.62608254 1.97158541 -776.17004395 76.54396439 C-778.4141423 79.22978333 -780.54760283 81.96305454 -782.6427002 84.76662064 C-783.06567383 85.33058548 -783.48864746 85.89455032 -783.92443848 86.47560501 C-788.75347652 92.95166183 -793.37334989 99.33627903 -796.6427002 106.76662064 C-797.3027002 106.76662064 -797.9627002 106.76662064 -798.6427002 106.76662064 C-796.79102142 100.68632298 -794.53418188 95.10869335 -791.5177002 89.51662064 C-791.12518066 88.784272 -790.73266113 88.05192337 -790.32824707 87.29738235 C-780.22045741 68.79464617 -766.01102886 51.14919554 -749.6427002 37.76662064 C-748.46796131 36.7799506 -747.29351075 35.79293726 -746.1192627 34.80568314 C-737.33701851 27.48280619 -728.32363856 20.84733855 -718.6427002 14.76662064 C-718.06793945 14.40149368 -717.49317871 14.03636673 -716.90100098 13.66017532 C-705.22787903 6.2838472 -692.95755042 -0.00803724 -680.6427002 -6.23337936 C-679.95740234 -6.58142624 -679.27210449 -6.92947311 -678.56604004 -7.28806686 C-666.02275914 -13.59508321 -652.77361406 -18.31731764 -639.6427002 -23.23337936 C-638.90036133 -23.51487839 -638.15802246 -23.79637741 -637.39318848 -24.08640671 C-629.118136 -27.22273016 -620.73627332 -29.68210538 -612.20129395 -31.98337936 C-608.59529379 -32.95941662 -605.02094094 -34.01516182 -601.44885254 -35.10789108 C-591.73170064 -38.06388053 -581.91116448 -40.37661819 -571.98449707 -42.5136528 C-569.62273404 -43.02230837 -567.26216449 -43.53652049 -564.90246582 -44.05466843 C-483.95619312 -61.81113445 -400.32765332 -63.74755892 0 0 Z " fill="#E52520" transform="translate(1105.6427001953125,184.23337936401367)"/>
<path d="M0 0 C1.47119866 0.05105728 2.94235941 0.10321711 4.41348267 0.15640259 C5.92943648 0.17507074 7.44545093 0.18929741 8.96148682 0.19927979 C12.93829017 0.23733574 16.91139901 0.33543254 20.88674927 0.44631958 C24.9485373 0.54890537 29.01092688 0.59434863 33.07363892 0.64468384 C41.03496382 0.75170533 48.99329409 0.92220059 56.95254517 1.13296509 C55.60327624 5.30998909 54.08389944 8.9852434 51.93301392 12.81655884 C51.32860474 13.89880737 50.72419556 14.98105591 50.10147095 16.09609985 C49.13056519 17.81591064 49.13056519 17.81591064 48.14004517 19.57046509 C47.47019224 20.76546125 46.8007637 21.96069539 46.13174438 23.15615845 C44.07935956 26.8192512 42.01680683 30.47655578 39.95254517 34.13296509 C39.30527466 35.28055298 38.65800415 36.42814087 37.99111938 37.61050415 C34.67581708 43.48587552 31.35423575 49.35761235 28.02139282 55.22305298 C27.30130428 56.50977127 26.61196483 57.81412576 25.95254517 59.13296509 C44.76254517 59.46296509 63.57254517 59.79296509 82.95254517 60.13296509 C83.61254517 58.48296509 84.27254517 56.83296509 84.95254517 55.13296509 C85.78829819 53.47692039 86.65068223 51.83413571 87.53457642 50.20327759 C88.04834839 49.25380249 88.56212036 48.30432739 89.09146118 47.32608032 C89.6437439 46.31360229 90.19602661 45.30112427 90.76504517 44.25796509 C91.33601929 43.20745972 91.90699341 42.15695435 92.49526978 41.07461548 C99.80932744 27.66367615 107.37393827 14.39552716 114.95254517 1.13296509 C137.39254517 1.13296509 159.83254517 1.13296509 182.95254517 1.13296509 C182.12243694 5.28350623 181.55182072 7.23127429 179.53848267 10.70327759 C179.0326062 11.58547974 178.52672974 12.46768188 178.00552368 13.37661743 C177.45179077 14.32746216 176.89805786 15.27830688 176.32754517 16.25796509 C175.13509003 18.3354884 173.94372763 20.41363921 172.75332642 22.49234009 C172.12893677 23.57966431 171.50454712 24.66698853 170.86123657 25.78726196 C167.69702454 31.33373954 164.60737684 36.92119287 161.51504517 42.50796509 C154.93761824 54.37014544 148.32035764 66.20953477 141.68643188 78.04019165 C139.35692837 82.1953804 137.0294622 86.35170827 134.70230103 90.50820923 C133.54333488 92.57791869 132.38399732 94.64742021 131.22427368 96.71670532 C128.17559036 102.15725405 125.13365157 107.60143996 122.10098267 113.05093384 C121.46934204 114.18401978 120.83770142 115.31710571 120.18692017 116.48452759 C118.979171 118.65137167 117.77333134 120.81928157 116.56973267 122.98843384 C116.02317017 123.96812134 115.47660767 124.94780884 114.91348267 125.95718384 C114.19877808 127.24241943 114.19877808 127.24241943 113.46963501 128.55361938 C112.96899536 129.40480347 112.46835571 130.25598755 111.95254517 131.13296509 C111.39936615 132.16211533 110.84618713 133.19126556 110.27624512 134.25160217 C107.95254517 137.13296509 107.95254517 137.13296509 104.88998413 137.85449219 C103.09128876 137.83450668 103.09128876 137.83450668 101.2562561 137.81411743 C100.26051575 137.81543167 100.26051575 137.81543167 99.24465942 137.81677246 C97.05753528 137.81260278 94.87350594 137.76599304 92.68692017 137.71890259 C91.16807735 137.70770792 89.64921283 137.69916901 88.13034058 137.69317627 C84.13817219 137.67029826 80.14731964 137.61138678 76.15567017 137.54495239 C72.08033042 137.48350594 68.00477741 137.45615639 63.92910767 137.42593384 C55.93631719 137.36164001 47.94459499 137.25927595 39.95254517 137.13296509 C41.13561534 133.4971587 42.3095692 130.20323294 44.24551392 126.90249634 C44.70393677 126.11222046 45.16235962 125.32194458 45.63467407 124.50772095 C46.13144653 123.66217651 46.62821899 122.81663208 47.14004517 121.94546509 C48.21581229 120.08959091 49.28994629 118.23276942 50.36270142 116.37515259 C50.93778442 115.37967407 51.51286743 114.38419556 52.1053772 113.35855103 C55.48357414 107.45943154 58.77946357 101.51462715 62.07754517 95.57046509 C62.40668915 94.97843292 62.73583313 94.38640076 63.07495117 93.77642822 C67.12095773 86.51163932 67.12095773 86.51163932 70.95254517 79.13296509 C42.73754517 79.62796509 42.73754517 79.62796509 13.95254517 80.13296509 C9.99254517 87.39296509 6.03254517 94.65296509 1.95254517 102.13296509 C-0.30637764 106.18264017 -2.56898983 110.22683512 -4.85995483 114.25796509 C-5.36720093 115.15515259 -5.87444702 116.05234009 -6.39706421 116.97671509 C-7.38842841 118.72632877 -8.39521975 120.46734146 -9.4211731 122.19689941 C-11.10583961 125.10730252 -11.10583961 125.10730252 -12.33499146 128.24700928 C-13.92276013 131.73672846 -15.41351451 134.33326373 -18.04745483 137.13296509 C-23.23270204 138.80880757 -28.23910166 138.53852224 -33.60604858 138.30484009 C-35.12055207 138.28243214 -36.63514311 138.26536301 -38.14976501 138.25338745 C-42.11910083 138.2077624 -46.08308856 138.09010395 -50.05032349 137.9569397 C-54.10527167 137.83373287 -58.16109268 137.77928407 -62.21737671 137.71890259 C-70.16317935 137.59055466 -78.10465034 137.38602999 -86.04745483 137.13296509 C-85.2813451 133.83014767 -84.15369927 131.21823522 -82.52792358 128.23062134 C-82.00665894 127.26922241 -81.48539429 126.30782349 -80.94833374 125.31729126 C-80.3829187 124.28708862 -79.81750366 123.25688599 -79.23495483 122.19546509 C-78.35589478 120.58345215 -78.35589478 120.58345215 -77.45907593 118.93887329 C-73.29454825 111.33118364 -69.02978166 103.78516544 -64.70370483 96.26846313 C-58.01474317 84.6333618 -51.54867262 72.87360251 -45.04745483 61.13296509 C-37.72910979 47.92533398 -30.40389725 34.72193332 -22.98495483 21.57046509 C-22.21707642 20.2067981 -22.21707642 20.2067981 -21.4336853 18.81558228 C-20.69916138 17.51669067 -20.69916138 17.51669067 -19.94979858 16.19155884 C-19.53206177 15.45220093 -19.11432495 14.71284302 -18.68392944 13.95108032 C-18.14389282 13.02110229 -17.6038562 12.09112427 -17.04745483 11.13296509 C-16.72627686 10.30560852 -16.40509888 9.47825195 -16.07418823 8.62582397 C-12.49264274 0.70033872 -8.28654621 -0.10734272 0 0 Z " fill="#000000" transform="translate(302.0474548339844,322.8670349121094)"/>
<path d="M0 0 C1.14653549 -0.00852997 2.29307098 -0.01705994 3.47434998 -0.02584839 C4.71811905 -0.02494202 5.96188812 -0.02403564 7.24334717 -0.02310181 C8.57774734 -0.02909187 9.91214405 -0.03589851 11.24653625 -0.04345703 C14.86039216 -0.06107816 18.47415326 -0.06581083 22.08804798 -0.0670886 C24.34988443 -0.06851325 26.61169702 -0.07278883 28.87352753 -0.07808304 C36.77595033 -0.09657221 44.6783058 -0.10475527 52.58074951 -0.10317993 C59.92779219 -0.10197963 67.27454058 -0.12306277 74.62150884 -0.15466726 C80.94446536 -0.18088996 87.26732613 -0.19154469 93.59033656 -0.19026911 C97.35998438 -0.18976113 101.12937064 -0.19535271 104.89896393 -0.21662521 C108.44827247 -0.23610857 111.99707273 -0.23606416 115.54640007 -0.22159195 C117.45528017 -0.2185317 119.36416088 -0.23511047 121.27296448 -0.25247192 C130.18491728 -0.18790014 136.97000278 1.45752352 144.39471436 6.45492554 C151.26937231 13.48582572 155.06999351 20.59545937 155.51971436 30.51742554 C155.23966257 40.58844914 150.39384147 49.13631058 145.39471436 57.64242554 C144.23037577 59.66234999 143.06769414 61.68323022 141.90643311 63.70492554 C141.29461182 64.76711304 140.68279053 65.82930054 140.0524292 66.92367554 C137.05043202 72.18543051 134.13377136 77.49348831 131.2180481 82.80331421 C130.20733124 84.64221288 129.19374272 86.47949748 128.17913818 88.31625366 C125.17477583 93.75622752 122.17688014 99.19908138 119.21717834 104.66351318 C117.68074658 107.49449393 116.1298 110.3175309 114.58221436 113.14242554 C113.76152466 114.67455688 113.76152466 114.67455688 112.92425537 116.23764038 C107.70326503 125.71481207 101.78088599 132.61937165 91.21010494 135.86062241 C84.69310186 137.4405325 78.39803499 137.55015435 71.715271 137.5262146 C70.50106979 137.52971924 69.28686859 137.53322388 68.03587341 137.53683472 C64.72996613 137.54409133 61.42431165 137.54244309 58.11841893 137.53607655 C54.64243456 137.53097933 51.1664603 137.53571838 47.69047546 137.53884888 C41.8543201 137.54247823 36.01821551 137.53771709 30.18206787 137.52816772 C23.45704483 137.51729026 16.73214315 137.52080775 10.00712305 137.53182054 C4.21064443 137.54092901 -1.58579789 137.5421612 -7.38228136 137.5369432 C-10.83433649 137.53384233 -14.28633479 137.53336174 -17.73838615 137.54001617 C-21.59112043 137.54692535 -25.44372142 137.53731898 -29.29644775 137.5262146 C-30.98859909 137.53228729 -30.98859909 137.53228729 -32.7149353 137.53848267 C-44.69681927 137.47478947 -55.07591597 135.93210663 -63.93341064 127.22445679 C-69.67985679 120.40357008 -72.58629453 112.56864949 -72.12115479 103.60092163 C-71.18833101 95.41365842 -66.91304607 88.2211617 -62.98028564 81.14242554 C-62.40512207 80.09401489 -61.8299585 79.04560425 -61.23736572 77.96542358 C-56.87555247 70.03976945 -52.43688335 62.15707108 -47.95684814 54.29769897 C-44.82379715 48.79231981 -41.74897327 43.25970555 -38.72637939 37.69320679 C-38.01396317 36.38547145 -37.30147949 35.07777285 -36.58892822 33.77011108 C-35.54689501 31.85726122 -34.50755183 29.94322821 -33.47744751 28.02392578 C-21.6348454 5.9606873 -21.6348454 5.9606873 -9.09062576 1.22334862 C-5.87248037 0.27250594 -3.34155709 0.01129284 0 0 Z M41.14471436 18.26742554 C38.93783936 22.24805054 36.73096436 26.22867554 34.45721436 30.32992554 C29.53202072 39.20310889 24.58409288 48.06218913 19.58221436 56.89242554 C14.92631353 65.11594741 10.27534644 73.3421401 5.64471436 81.57992554 C5.06906738 82.59973511 4.49342041 83.61954468 3.90032959 84.67025757 C1.28741311 89.32491089 -1.28796811 93.9977766 -3.75372314 98.73226929 C-4.15768311 99.50562622 -4.56164307 100.27898315 -4.97784424 101.07577515 C-6.53879905 104.97468759 -6.06166557 107.24615913 -4.85528564 111.26742554 C-3.00054378 114.21319203 -1.02628813 116.68192429 2.14471436 118.26742554 C5.13441725 118.354477 8.10056391 118.38292699 11.09002686 118.36508179 C12.41754471 118.36295937 12.41754471 118.36295937 13.7718811 118.36079407 C16.60452626 118.35518694 19.437093 118.34263325 22.26971436 118.32992554 C24.18768197 118.32491145 26.10565081 118.32034839 28.02362061 118.31625366 C32.73068217 118.3052152 37.43768496 118.28794579 42.14471436 118.26742554 C49.12041918 106.11914821 56.02931119 93.93581237 62.86224365 81.70663452 C66.74699563 74.75600926 70.65613266 67.81977589 74.58221436 60.89242554 C79.53719826 52.14277286 84.44636055 43.36830183 89.33221436 34.57992554 C89.66067352 33.98971619 89.98913269 33.39950684 90.32754517 32.79141235 C91.26108068 31.11339396 92.19316098 29.43456624 93.12518311 27.75570679 C93.66038574 26.79189087 94.19558838 25.82807495 94.74700928 24.83505249 C95.92546247 22.67019796 97.04241249 20.47202928 98.14471436 18.26742554 C79.33471436 18.26742554 60.52471436 18.26742554 41.14471436 18.26742554 Z " fill="#000000" transform="translate(787.8552856445313,323.7325744628906)"/>
<path d="M0 0 C1.3351435 -0.00515131 2.67028016 -0.01244166 4.00540161 -0.02168274 C7.5985433 -0.04004979 11.19093402 -0.02735359 14.78404355 -0.00759244 C18.56298117 0.00891492 22.34187571 -0.00003534 26.12083435 -0.00511169 C32.46300106 -0.00961872 38.80487151 0.00615164 45.14697266 0.03417969 C52.45723957 0.06623931 59.76697287 0.06620603 67.07727772 0.04896492 C74.13970474 0.03304876 81.20193796 0.03986506 88.26435661 0.05690193 C91.25656293 0.06373649 94.24861221 0.06277735 97.24081612 0.05535698 C100.76974251 0.0476414 104.29806852 0.05998947 107.82689285 0.08720589 C109.72374854 0.09726833 111.62067676 0.0879627 113.51753235 0.07788086 C124.46461837 0.19894557 132.46719188 2.88258367 140.42358398 10.50219727 C145.68185291 16.36264014 148.08483634 23.79063089 148.33374023 31.63110352 C147.70554786 40.99028785 143.7765639 48.15269143 139.14624023 56.13110352 C138.42344458 57.40395689 137.70228291 58.67773937 136.98266602 59.95239258 C135.5025582 62.57017503 134.01476587 65.18334336 132.52075195 67.79321289 C129.82144699 72.51718224 127.18860994 77.27676283 124.55664062 82.03857422 C122.71838665 85.36365484 120.87100513 88.68350864 119.02124023 92.00219727 C116.81360726 95.96499259 114.61455246 99.93223545 112.42782593 103.90658569 C110.85929224 106.75474255 109.28309681 109.59866232 107.70874023 112.44360352 C107.14074707 113.48162109 106.57275391 114.51963867 105.98754883 115.58911133 C102.13909195 122.5207135 98.61438693 128.6886979 91.64624023 132.88110352 C90.87924805 133.36063477 90.11225586 133.84016602 89.32202148 134.33422852 C81.18009611 137.8677177 72.56475874 137.92504108 63.82250977 137.90576172 C62.61137512 137.91087265 61.40024048 137.91598358 60.15240479 137.92124939 C56.85886015 137.93269681 53.56547311 137.93523042 50.27191401 137.93268609 C47.50884913 137.93160885 44.74580692 137.93651884 41.98274696 137.94129151 C35.45698624 137.95234886 28.93128311 137.95284549 22.40551758 137.94677734 C15.70376245 137.94074077 9.00221743 137.9530491 2.30049813 137.97434741 C-3.48159766 137.99203823 -9.26362702 137.99795304 -15.04574883 137.99470967 C-18.48671261 137.9929085 -21.92752649 137.99541497 -25.36846542 138.00942421 C-29.21121913 138.02183671 -33.05349351 138.01496756 -36.89624023 138.00341797 C-38.01557953 138.01106171 -39.13491882 138.01870544 -40.28817749 138.02658081 C-52.73952981 137.94435958 -62.36279327 135.71829424 -71.38110352 126.96704102 C-78.08320046 119.78973426 -79.49870044 112.30051362 -79.25219727 102.65844727 C-78.55346802 96.08059122 -75.24577222 90.62508241 -72.01000977 84.99536133 C-70.52596959 82.38427029 -69.10859364 79.74325052 -67.69750977 77.09204102 C-61.29895279 65.09215668 -54.67615128 53.22141324 -47.93969727 41.40844727 C-45.6567673 37.39991912 -43.41880315 33.36978685 -41.20532227 29.32250977 C-40.34777344 27.76802124 -40.34777344 27.76802124 -39.47290039 26.18212891 C-38.38660453 24.21124631 -37.30912756 22.23546542 -36.24243164 20.25390625 C-27.8719273 5.15361413 -17.21749738 -0.16422876 0 0 Z M28.90795898 24.53344727 C27.96956119 26.8686373 27.1065058 29.23599677 26.33374023 31.63110352 C25.39019115 33.41044392 24.40938696 35.17076251 23.38452148 36.90454102 C22.46869421 38.60341213 21.55599654 40.30397363 20.64624023 42.00610352 C16.49285 49.69631326 12.26978358 57.34065742 7.95874023 64.94360352 C7.43103027 65.88010742 6.90332031 66.81661133 6.35961914 67.78149414 C3.42001933 72.99055342 0.43548664 78.16859275 -2.59985352 83.32250977 C-3.89282754 85.55037129 -5.18579641 87.7782358 -6.47875977 90.00610352 C-7.09605957 91.03388916 -7.71335937 92.0616748 -8.34936523 93.12060547 C-11.70739011 98.95092227 -14.06225488 103.81784013 -12.66625977 110.63110352 C-10.58146354 114.72623895 -8.90272554 116.92224055 -4.66625977 118.63110352 C-2.65047291 118.91606015 -2.65047291 118.91606015 -0.5402832 118.8581543 C0.26024475 118.85800323 1.06077271 118.85785217 1.88555908 118.85769653 C2.73986511 118.84737396 3.59417114 118.83705139 4.47436523 118.82641602 C5.79763824 118.82217117 5.79763824 118.82217117 7.14764404 118.81784058 C9.95981522 118.80666313 12.77166563 118.78156302 15.58374023 118.75610352 C17.4925898 118.74607057 19.40144436 118.73694526 21.31030273 118.72875977 C25.98490512 118.70673176 30.65926833 118.67221863 35.33374023 118.63110352 C35.77689575 117.81210571 35.77689575 117.81210571 36.22900391 116.9765625 C43.02693117 104.42784697 49.94404242 91.95447365 56.98608398 79.54125977 C61.02088781 72.42735704 65.01576741 65.29126057 69.00610352 58.15234375 C71.75329408 53.23775432 74.50359836 48.3250846 77.27101135 43.42184448 C78.24802634 41.69053587 79.22363105 39.95843165 80.19921875 38.22631836 C81.42773462 36.04557935 82.65858013 33.86615061 83.89208984 31.68823242 C84.72172241 30.21362549 84.72172241 30.21362549 85.56811523 28.70922852 C86.05505859 27.84716797 86.54200195 26.98510742 87.04370117 26.09692383 C88.32072597 23.65597938 89.32938035 21.19384481 90.33374023 18.63110352 C82.50616144 18.30065058 74.68038552 18.0735168 66.84741211 17.91699219 C64.18262336 17.85904438 61.52696322 17.76324386 58.86303711 17.65039062 C41.77705896 15.84894736 41.77705896 15.84894736 28.90795898 24.53344727 Z " fill="#000000" transform="translate(554.666259765625,323.368896484375)"/>
<path d="M0 0 C0.6673269 -0.00382555 1.3346538 -0.00765109 2.02220273 -0.01159257 C4.26303007 -0.02192857 6.50360145 -0.01792931 8.7444458 -0.01396179 C10.3492761 -0.01830807 11.95410432 -0.02349093 13.55892944 -0.02944946 C17.9227423 -0.04286305 22.28646866 -0.04341528 26.65029812 -0.04088616 C30.29328716 -0.03981757 33.93625862 -0.04469719 37.5792439 -0.04949158 C46.17631671 -0.06059594 54.77334584 -0.06101963 63.37042236 -0.05497742 C72.23576476 -0.0489423 81.10094825 -0.06123474 89.96626353 -0.08254749 C97.57827031 -0.10017356 105.19022657 -0.10616307 112.80225301 -0.10290974 C117.34811929 -0.1010976 121.89387236 -0.10372579 126.43972015 -0.11762428 C130.71774894 -0.13021357 134.9955307 -0.12824813 139.27355576 -0.11521339 C140.84124968 -0.11285007 142.40896105 -0.11557356 143.97663498 -0.12383652 C146.12224062 -0.13432736 148.26702107 -0.12618544 150.41259766 -0.11352539 C152.21116274 -0.113777 152.21116274 -0.113777 154.04606247 -0.1140337 C160.56413032 0.60136484 165.21646902 3.1681399 169.46026611 8.26069641 C171.69284527 12.30060156 171.75345941 15.69255573 171.46026611 20.26069641 C170.50139156 22.76361971 169.53131661 24.9229954 168.27276611 27.26069641 C167.92036865 27.93946838 167.56797119 28.61824036 167.20489502 29.31758118 C162.43286957 38.39653614 157.29324462 47.28098477 152.20880127 56.18696594 C149.28762158 61.32207516 146.40547689 66.47892332 143.52276611 71.63569641 C142.34569938 73.73987236 141.16861599 75.844039 139.99151611 77.94819641 C139.4075708 78.99233704 138.82362549 80.03647766 138.22198486 81.11225891 C136.48014686 84.22516674 134.73621121 87.33688913 132.99151611 90.44819641 C126.81182896 101.46985508 120.65242844 112.5023905 114.51885986 123.54975891 C113.82840723 124.79301421 113.13793693 126.03625969 112.44744873 127.27949524 C110.78485199 130.27311652 109.12249025 133.26686822 107.46026611 136.26069641 C85.17248126 136.37755161 62.88474699 136.4656954 40.59671783 136.51975727 C30.24774427 136.54552752 19.89896117 136.5806556 9.55010986 136.63789368 C0.52895272 136.68776463 -8.49206647 136.719996 -17.51335764 136.73113889 C-22.28914374 136.73765137 -27.06453521 136.75293306 -31.8401947 136.78934669 C-36.33821771 136.8233645 -40.83568473 136.83373773 -45.33382416 136.82623482 C-46.98175328 136.82760678 -48.6297016 136.837505 -50.27751923 136.85672379 C-65.27480007 137.02301314 -65.27480007 137.02301314 -71.13260651 132.70680523 C-74.90299991 128.83196118 -76.28918526 124.76398819 -77.16473389 119.51069641 C-76.77050563 113.46972813 -73.43579245 108.42389054 -70.53973389 103.26069641 C-70.09452393 102.44713684 -69.64931396 101.63357727 -69.19061279 100.79536438 C-67.67474264 98.02605376 -66.14139683 95.26712313 -64.60223389 92.51069641 C-64.1127124 91.62357971 -63.62319092 90.73646301 -63.11883545 89.82246399 C-53.11182473 72.20135167 -37.74656095 63.45769261 -18.68865967 57.9679718 C-2.63765709 53.73576697 14.17547802 52.27788342 30.64776611 50.63569641 C31.95366699 50.4942218 33.25956787 50.35274719 34.6050415 50.20698547 C41.50776703 49.50944733 48.21953579 49.20347932 55.15638733 49.53166199 C58.71704634 49.69140733 62.27690821 49.74577645 65.84054565 49.79908752 C67.55897004 49.85589924 69.27662194 49.96492019 70.98794556 50.1309967 C77.87925053 50.79143224 80.23937311 49.74748354 87.46026611 47.26069641 C92.74026611 37.69069641 98.02026611 28.12069641 103.46026611 18.26069641 C59.57026611 18.26069641 15.68026611 18.26069641 -29.53973389 18.26069641 C-28.3536543 14.70245766 -27.4392132 14.23312948 -24.39129639 12.19429016 C-23.13059326 11.34254211 -23.13059326 11.34254211 -21.84442139 10.47358704 C-20.96012451 9.88770813 -20.07582764 9.30182922 -19.16473389 8.69819641 C-17.84989014 7.81357727 -17.84989014 7.81357727 -16.50848389 6.91108704 C-14.19050827 5.35336489 -11.86677618 3.80482655 -9.53973389 2.26069641 C-5.92858415 -0.14673675 -4.29637648 0.00736505 0 0 Z M35.21026611 68.57319641 C33.99935303 68.83749451 33.99935303 68.83749451 32.76397705 69.10713196 C24.77751162 71.04971934 16.4386958 73.50685347 11.18243408 80.13154602 C9.12203911 83.53710973 7.28358294 87.00800898 5.52276611 90.57319641 C4.90032021 91.77213148 4.27467924 92.96941333 3.64581299 94.16499329 C2.44341008 96.46885348 1.25729917 98.78130872 0.08966064 101.10298157 C-1.71474701 104.59986629 -3.69480144 107.95644708 -5.79193115 111.28486633 C-6.90960443 113.71024761 -6.90960443 113.71024761 -5.53973389 118.26069641 C12.28026611 118.59069641 30.10026611 118.92069641 48.46026611 119.26069641 C52.83770962 111.38137086 52.83770962 111.38137086 57.21490479 103.50190735 C60.37555055 97.81218036 63.53662956 92.12269654 66.69993591 86.43444824 C68.08012517 83.95254481 69.46001075 81.47047261 70.83987427 78.98838806 C71.50274673 77.79622565 72.16577131 76.60414781 72.82894897 75.41215515 C73.75591582 73.74599594 74.68232317 72.07952549 75.60870361 70.41304016 C76.13641357 69.46420959 76.66412354 68.51537903 77.20782471 67.53779602 C77.98436587 66.12594429 78.73966338 64.70190187 79.46026611 63.26069641 C64.60716695 62.97035805 49.66866475 65.27475799 35.21026611 68.57319641 Z " fill="#000000" transform="translate(1419.5397338867188,323.7393035888672)"/>
<path d="M0 0 C0.72383176 -0.00170885 1.44766353 -0.0034177 2.19342959 -0.00517833 C4.60713353 -0.0084599 7.02055649 0.00250828 9.43423462 0.01345825 C11.16908766 0.01402265 12.90394118 0.01370524 14.63879395 0.01257324 C19.34081001 0.01199986 24.04272384 0.02375182 28.74471617 0.03772116 C33.66145019 0.05023095 38.5781866 0.05139921 43.49493408 0.05377197 C52.80207305 0.059986 62.10916498 0.0763958 71.41628325 0.09647095 C82.01355395 0.11883232 92.61082691 0.12982399 103.20811534 0.13986182 C125.00438056 0.16076208 146.80060345 0.19593659 168.59683228 0.24050903 C168.59683228 0.90050903 168.59683228 1.56050903 168.59683228 2.24050903 C166.46226769 3.90738812 164.32705698 5.46121209 162.09683228 6.99050903 C160.87733793 7.8383978 159.65859424 8.68736717 158.44058228 9.53738403 C157.54288872 10.14932397 157.54288872 10.14932397 156.62705994 10.77362633 C154.59310873 12.19151376 154.59310873 12.19151376 152.84870911 13.79303932 C147.3226173 18.56789887 143.01507633 19.08035127 135.86636353 18.92166138 C134.29916313 18.92297562 134.29916313 18.92297562 132.70030212 18.92431641 C129.26920104 18.9201579 125.84008907 18.87358492 122.40933228 18.82644653 C120.02181058 18.8152483 117.63427506 18.80671108 115.24673462 18.80072021 C108.97955899 18.77787179 102.71322498 18.71898117 96.44638062 18.65249634 C90.04482405 18.59098878 83.64313076 18.563687 77.24136353 18.53347778 C64.69282852 18.46923554 52.14487528 18.36806532 39.59683228 18.24050903 C39.13655388 19.40926071 39.13655388 19.40926071 38.66697693 20.60162354 C37.65811325 23.08939538 36.52031315 25.3789066 35.23355103 27.73269653 C34.76578247 28.59032593 34.29801392 29.44795532 33.81607056 30.33157349 C33.31059692 31.25027222 32.80512329 32.16897095 32.28433228 33.11550903 C31.75307739 34.08512573 31.22182251 35.05474243 30.67446899 36.05374146 C25.30927776 45.81713264 19.81582742 55.50707204 14.32046509 65.19754028 C11.23564605 70.64360042 8.16330387 76.09660057 5.09683228 81.55300903 C4.521427 82.57241577 3.94602173 83.59182251 3.35317993 84.64212036 C0.74032504 89.29653191 -1.83624119 93.96907636 -4.30551147 98.70144653 C-4.71019653 99.47407837 -5.11488159 100.24671021 -5.53182983 101.04275513 C-7.0596437 104.89632208 -6.54613866 107.27372755 -5.40316772 111.24050903 C-2.93583885 115.2939779 -0.90786591 116.91987233 3.59683228 118.24050903 C7.15090558 118.54956475 10.69623487 118.55173455 14.26211548 118.55935669 C15.33573837 118.56940231 16.40936127 118.57944794 17.51551819 118.58979797 C21.05954459 118.62065617 24.60349535 118.63767269 28.14761353 118.65457153 C30.60670117 118.67328103 33.06578239 118.69285428 35.52485657 118.71325684 C41.99385792 118.76460694 48.46288009 118.80421742 54.93197632 118.84140015 C61.53450686 118.88142162 68.13695058 118.93252247 74.7394104 118.98269653 C87.6918223 119.07948998 100.64428398 119.16426022 113.59683228 119.24050903 C113.59683228 119.90050903 113.59683228 120.56050903 113.59683228 121.24050903 C112.13150024 122.50564575 112.13150024 122.50564575 110.08901978 123.92019653 C109.3490979 124.4371106 108.60917603 124.95402466 107.84683228 125.48660278 C107.06308228 126.02414185 106.27933228 126.56168091 105.47183228 127.11550903 C104.7112854 127.64531372 103.95073853 128.17511841 103.16714478 128.72097778 C100.98386968 130.23797755 98.79546959 131.74585709 96.59683228 133.24050903 C95.8250766 133.92191956 95.05332092 134.60333008 94.25817871 135.3053894 C89.33827489 138.54592386 83.44360019 137.77876677 77.77359009 137.72634888 C76.4817984 137.73014557 75.19000671 137.73394226 73.85906982 137.737854 C70.32561883 137.74752267 66.79267557 137.73227235 63.25928593 137.71194792 C59.55106794 137.69432201 55.84286438 137.69790318 52.13461304 137.69866943 C45.90383467 137.69679791 39.67325139 137.67945999 33.4425354 137.65213013 C26.25916026 137.62073611 19.07599906 137.61013219 11.89256024 137.61160123 C4.2226086 137.6129575 -3.44726154 137.59903941 -11.11718845 137.58070803 C-13.3157972 137.57646438 -15.51439261 137.57502823 -17.71300507 137.57423019 C-21.82955298 137.57182829 -25.94585387 137.55232633 -30.06234741 137.53103638 C-31.87377731 137.53239594 -31.87377731 137.53239594 -33.72180176 137.53378296 C-44.90334537 137.44956917 -54.41603351 136.34591498 -63.40316772 129.24050903 C-70.80595519 121.46826637 -73.0832882 114.59866878 -73.17538452 104.0774231 C-72.85362635 94.60018233 -68.77594773 87.69300526 -63.93002319 79.76101685 C-61.82339044 76.28342226 -59.84709938 72.73759838 -57.86141968 69.18997192 C-56.24719322 66.31025167 -54.61531739 63.44106617 -52.98129272 60.57254028 C-48.25355311 52.24049749 -43.65086444 43.83930675 -39.04721069 35.43826294 C-22.85629771 5.96313258 -22.85629771 5.96313258 -10.73085594 1.18815804 C-7.00018097 0.12574768 -3.87771227 -0.00553169 0 0 Z " fill="#000000" transform="translate(72.40316772460938,323.7594909667969)"/>
<path d="M0 0 C1.25341193 -0.00256327 1.25341193 -0.00256327 2.53214532 -0.00517833 C5.34209855 -0.00848193 8.15181486 0.00254476 10.96174622 0.01345825 C12.97201532 0.01402218 14.98228484 0.01370617 16.99255371 0.01257324 C22.45917974 0.011998 27.92571851 0.02378 33.39232421 0.03772116 C39.10184652 0.05020001 44.8113707 0.05139677 50.52090454 0.05377197 C61.3368604 0.05999512 72.15277597 0.07641722 82.96871406 0.09647095 C95.28051474 0.118804 107.59231732 0.12981685 119.9041332 0.13986182 C145.23431368 0.16078273 170.56445836 0.19597491 195.89460754 0.24050903 C177.81838542 18.33070143 177.81838542 18.33070143 166.70173645 18.9524231 C161.0339118 18.92501117 155.38890894 18.52483599 149.73860168 18.09994507 C132.24100685 16.29892463 132.24100685 16.29892463 116.20075989 21.51004028 C110.73549902 27.61964155 108.34086066 34.87186354 106.06257629 42.63601685 C104.27684181 48.14700848 101.39327817 52.81633939 98.39460754 57.74050903 C97.32380394 59.61412904 96.26005938 61.49180001 95.20320129 63.37332153 C94.66679016 64.3223938 94.13037903 65.27146606 93.57771301 66.2492981 C89.87787273 72.82464522 86.22588885 79.42667839 82.5662384 86.02444458 C55.72063987 134.41447671 55.72063987 134.41447671 53.89460754 136.24050903 C51.77779437 136.33472644 49.65779996 136.35793664 47.53889465 136.35403442 C46.87550583 136.35418045 46.212117 136.35432648 45.52862549 136.35447693 C43.32636799 136.35377784 41.1241941 136.34598568 38.92195129 136.33816528 C37.39880418 136.33630109 35.87565647 136.33487719 34.35250854 136.33387756 C30.33623103 136.3300525 26.31998947 136.32022231 22.3037262 136.30917358 C18.20837388 136.29895922 14.11301579 136.29437989 10.01765442 136.28933716 C1.97662227 136.27860003 -6.06438063 136.26152375 -14.10539246 136.24050903 C-12.87109091 132.43905224 -11.59245417 129.03672599 -9.59367371 125.57254028 C-9.09093933 124.69339966 -8.58820496 123.81425903 -8.07023621 122.90847778 C-7.25232605 121.49502075 -7.25232605 121.49502075 -6.41789246 120.05300903 C-5.2358965 117.98717827 -4.05494956 115.92074702 -2.87492371 113.85379028 C-2.25697937 112.77307251 -1.63903503 111.69235474 -1.00236511 110.57888794 C2.17332483 104.99016409 5.28211562 99.36459615 8.39460754 93.74050903 C13.02464963 85.38608404 17.68329662 77.04937669 22.39460754 68.74050903 C27.2476637 60.17957614 32.0539212 51.59338181 36.83210754 42.99050903 C37.44699036 41.88384888 38.06187317 40.77718872 38.69538879 39.63699341 C42.45873644 32.85392903 46.17983172 26.05093139 49.89460754 19.24050903 C23.49460754 18.91050903 -2.90539246 18.58050903 -30.10539246 18.24050903 C-30.10539246 17.58050903 -30.10539246 16.92050903 -30.10539246 16.24050903 C-28.40885925 14.76004028 -28.40885925 14.76004028 -26.05461121 13.05300903 C-25.2109198 12.43683716 -24.36722839 11.82066528 -23.49797058 11.18582153 C-22.6052948 10.54386841 -21.71261902 9.90191528 -20.79289246 9.24050903 C-19.91181824 8.59855591 -19.03074402 7.95660278 -18.12297058 7.29519653 C-8.00652994 -0.05941735 -8.00652994 -0.05941735 0 0 Z " fill="#000000" transform="translate(1640.1053924560547,323.7594909667969)"/>
<path d="M0 0 C22.77 0 45.54 0 69 0 C67.59145276 3.52136809 66.20714513 6.62850859 64.41796875 9.9296875 C63.90500244 10.8777124 63.39203613 11.8257373 62.86352539 12.80249023 C62.31043701 13.81641846 61.75734863 14.83034668 61.1875 15.875 C60.6092749 16.93855713 60.0310498 18.00211426 59.43530273 19.09790039 C53.95300335 29.14841131 48.31794895 39.10964709 42.66357422 49.06396484 C39.80070628 54.11662846 36.96190966 59.18272802 34.125 64.25 C33.5470166 65.28229736 32.9690332 66.31459473 32.37353516 67.37817383 C27.41374565 76.24511594 22.48568278 85.12956189 17.55761719 94.01416016 C12.84514789 102.50079705 8.08713296 110.96086095 3.29858398 119.40478516 C2.80559814 120.27409668 2.3126123 121.1434082 1.8046875 122.0390625 C1.17022705 123.15595459 1.17022705 123.15595459 0.52294922 124.29541016 C-1.66856854 128.187304 -3.83087772 132.0955799 -6 136 C-28.77 136 -51.54 136 -75 136 C-65.87867647 117.75735294 -65.87867647 117.75735294 -60.9375 109.1875 C-59.8102356 107.21278861 -58.68397617 105.23750328 -57.55859375 103.26171875 C-56.97835449 102.24384277 -56.39811523 101.2259668 -55.80029297 100.17724609 C-52.66233174 94.63921689 -49.58340671 89.06852863 -46.5 83.5 C-41.86975036 75.14568898 -37.21132897 66.80886001 -32.5 58.5 C-25.83769273 46.74801542 -19.28061664 34.93857314 -12.73193359 23.12304688 C-11.11124378 20.20059634 -9.48800155 17.27958633 -7.86328125 14.359375 C-7.39559326 13.51866455 -6.92790527 12.6779541 -6.44604492 11.81176758 C-5.59098971 10.27500692 -4.7356992 8.73837716 -3.88012695 7.2019043 C-1.88724768 3.62906364 -1.88724768 3.62906364 0 0 Z " fill="#000000" transform="translate(1016,324)"/>
<path d="M0 0 C0.90154816 0.00424484 1.80309631 0.00848969 2.73196411 0.01286316 C5.59505815 0.02957817 8.45743329 0.06721683 11.3203125 0.10546875 C13.26821896 0.12052488 15.21613652 0.13421166 17.1640625 0.14648438 C21.92475372 0.17945817 26.68491146 0.23119062 31.4453125 0.29296875 C30.4453125 3.29296875 30.4453125 3.29296875 28.82858372 4.41174603 C27.77195735 4.93855072 27.77195735 4.93855072 26.69398499 5.47599792 C25.88774185 5.88400131 25.08149872 6.2920047 24.25082397 6.71237183 C23.35989044 7.15042145 22.46895691 7.58847107 21.55102539 8.03979492 C20.61774918 8.50840439 19.68447296 8.97701385 18.72291565 9.45982361 C15.62604136 11.01162664 12.52220762 12.54892637 9.41796875 14.0859375 C7.27146745 15.15706439 5.12534875 16.22895831 2.979599 17.30158997 C-1.52253439 19.54956931 -6.02790303 21.79087983 -10.53588867 24.02709961 C-16.32598204 26.89950449 -22.10989518 29.78408993 -27.89169979 32.67313671 C-32.32423242 34.88719279 -36.75892361 37.09689368 -41.19439888 39.30504799 C-43.32836285 40.36757772 -45.46189137 41.43098243 -47.59498405 42.49526024 C-50.57162741 43.97908017 -53.55087527 45.45752527 -56.53100586 46.93432617 C-57.41991516 47.37844849 -58.30882446 47.8225708 -59.22467041 48.28015137 C-60.03373337 48.67969528 -60.84279633 49.0792392 -61.67637634 49.4908905 C-62.38117095 49.84096255 -63.08596556 50.1910346 -63.81211758 50.5517149 C-65.5546875 51.29296875 -65.5546875 51.29296875 -67.5546875 51.29296875 C-64.67115427 55.87634138 -61.46540248 59.74722174 -57.7421875 63.66796875 C-56.662058 64.82225978 -55.58262634 65.97720422 -54.50390625 67.1328125 C-53.73312744 67.95628174 -53.73312744 67.95628174 -52.94677734 68.79638672 C-49.12118116 72.90913744 -45.49082798 77.19173944 -41.8515625 81.46875 C-40.83625356 82.66042561 -39.82061783 83.85182285 -38.8046875 85.04296875 C-38.28994873 85.64657227 -37.77520996 86.25017578 -37.24487305 86.87207031 C-33.86379396 90.81762706 -30.40374543 94.67407807 -26.8671875 98.48046875 C-23.49885303 102.10580083 -20.2754673 105.80529268 -17.1796875 109.66796875 C-13.04048054 114.81765119 -8.60803593 119.63802265 -4.07080078 124.43505859 C4.4453125 133.46114994 4.4453125 133.46114994 4.4453125 136.29296875 C-5.69897281 136.54849457 -15.84248592 136.74361301 -25.98934078 136.86290264 C-30.70181838 136.92017561 -35.41208567 136.99776727 -40.12329102 137.12280273 C-44.67521714 137.24284676 -49.22502633 137.30819783 -53.77841377 137.33661842 C-55.51016123 137.35685372 -57.2418001 137.39637462 -58.97263908 137.45599937 C-72.52568414 137.90406184 -72.52568414 137.90406184 -77.57461548 133.89505005 C-79.85347859 131.12939057 -81.72016595 128.36517858 -83.5546875 125.29296875 C-84.51584486 124.09256179 -85.50163168 122.91094163 -86.5234375 121.76171875 C-90.72802504 116.83041237 -94.9068079 111.88646967 -98.9921875 106.85546875 C-102.94253565 102.00056861 -107.00446698 97.25086794 -111.09106445 92.51098633 C-115.08113875 87.8729019 -118.96801551 83.16218169 -122.8125 78.40234375 C-124.53246269 76.25192397 -124.53246269 76.25192397 -126.5546875 74.29296875 C-125.80456641 67.05875008 -122.82500619 60.30360911 -117.5546875 55.29296875 C-109.86709855 50.23232811 -101.28684818 46.61281079 -92.91552734 42.8359375 C-88.69932353 40.90026932 -84.62684711 38.76128068 -80.5546875 36.54296875 C-70.53289001 31.18180583 -60.3361738 26.1670326 -50.16278076 21.10214233 C-39.72027585 15.90130901 -29.32019903 10.64094261 -19.03125 5.140625 C-17.88398437 4.53089844 -16.73671875 3.92117188 -15.5546875 3.29296875 C-14.69004883 2.76590332 -13.82541016 2.23883789 -12.93457031 1.69580078 C-8.49362487 -0.14742896 -4.75515573 -0.08503497 0 0 Z " fill="#000000" transform="translate(1188.5546875,323.70703125)"/>
<path d="M0 0 C22.77 0 45.54 0 69 0 C59.8794807 18.2410386 59.8794807 18.2410386 54.9375 26.8125 C53.8089545 28.78982762 52.68139172 30.76771637 51.5546875 32.74609375 C50.68408691 34.27339111 50.68408691 34.27339111 49.79589844 35.83154297 C46.68172307 41.32580179 43.62346701 46.85097619 40.5625 52.375 C35.42762903 61.63114851 30.2868766 70.88388759 25.125 80.125 C24.52373291 81.20442871 23.92246582 82.28385742 23.30297852 83.39599609 C22.75182373 84.38164551 22.20066895 85.36729492 21.6328125 86.3828125 C21.14699707 87.25309082 20.66118164 88.12336914 20.16064453 89.02001953 C19 91 19 91 18 92 C15.88318683 92.0942174 13.76319242 92.11742761 11.64428711 92.11352539 C10.98089828 92.11367142 10.31750946 92.11381744 9.63401794 92.1139679 C7.43176044 92.11326881 5.22958655 92.10547665 3.02734375 92.09765625 C1.50419664 92.09579206 -0.01895107 92.09436816 -1.542099 92.09336853 C-5.55837651 92.08954346 -9.57461808 92.07971328 -13.59088135 92.06866455 C-17.68623366 92.05845019 -21.78159176 92.05387086 -25.87695312 92.04882812 C-33.91798528 92.038091 -41.95898817 92.02101472 -50 92 C-48.65848594 87.84857905 -47.15572838 84.19319452 -45.015625 80.38671875 C-44.41741943 79.31663574 -43.81921387 78.24655273 -43.20288086 77.14404297 C-42.55843018 76.00338379 -41.91397949 74.86272461 -41.25 73.6875 C-40.57317185 72.48089909 -39.8968287 71.274026 -39.22094727 70.06689453 C-37.83055931 67.58551479 -36.43730488 65.10578023 -35.04150391 62.62744141 C-33.15050319 59.26933679 -31.26736604 55.9068848 -29.38671875 52.54296875 C-26.51926107 47.41429743 -23.64726651 42.28818938 -20.7734375 37.16308594 C-17.65980878 31.60964793 -14.54867274 26.05481416 -11.4375 20.5 C-10.86572021 19.4795459 -10.29394043 18.4590918 -9.70483398 17.40771484 C-9.16157471 16.43785645 -8.61831543 15.46799805 -8.05859375 14.46875 C-7.58736084 13.62763672 -7.11612793 12.78652344 -6.63061523 11.91992188 C-4.41379984 7.95029887 -2.2080565 3.9745017 0 0 Z " fill="#000000" transform="translate(1276,368)"/>
<path d="M0 0 C10.60507633 -0.06952305 21.21009841 -0.12282304 31.81535625 -0.15543652 C36.73986043 -0.17108968 41.66420863 -0.19232168 46.58862305 -0.22631836 C51.34132736 -0.25892412 56.09388169 -0.27685564 60.84668922 -0.28463173 C62.65957818 -0.29017304 64.47245897 -0.30099388 66.28528404 -0.31719017 C68.82537932 -0.3389807 71.36485553 -0.34196626 73.9050293 -0.34057617 C74.65381348 -0.351362 75.40259766 -0.36214783 76.17407227 -0.3732605 C80.63278442 -0.34687301 83.47191021 0.22587348 87 3 C89 6 89 6 88.859375 9.2421875 C87.92597548 13.32368904 86.37527193 16.56985761 84.25 20.125 C83.91484375 20.71925781 83.5796875 21.31351562 83.234375 21.92578125 C80.9068216 25.91965129 78.35556856 28.89081934 75 32 C75.763125 32.103125 76.52625 32.20625 77.3125 32.3125 C80.25751284 33.06587538 81.25209356 33.55293098 83 36 C84.36960182 39.62777458 83.99209086 41.02034086 82.55859375 44.70703125 C81.86866424 46.08422194 81.16072543 47.4524993 80.4375 48.8125 C80.06761963 49.52519043 79.69773926 50.23788086 79.31665039 50.97216797 C73.95809175 61.09607833 67.44155244 70.45453345 56 74 C52.79105543 74.40127626 49.62323407 74.38051028 46.39282227 74.34057617 C45.45545731 74.34101425 44.51809235 74.34145233 43.55232239 74.34190369 C40.47346713 74.33982419 37.39516564 74.3165326 34.31640625 74.29296875 C32.1740702 74.28736982 30.03173031 74.28310112 27.88938904 74.28010559 C22.26528216 74.26868027 16.64140964 74.23923286 11.01739502 74.20599365 C5.27269663 74.17524295 -0.47203981 74.16158957 -6.21679688 74.14648438 C-17.47796726 74.11436106 -28.7389641 74.0631926 -40 74 C-39.20745782 70.56279878 -37.980387 67.84366006 -36.296875 64.73046875 C-35.73532715 63.68850342 -35.1737793 62.64653809 -34.59521484 61.57299805 C-33.98629395 60.45578369 -33.37737305 59.33856934 -32.75 58.1875 C-32.12174316 57.02839111 -31.49348633 55.86928223 -30.84619141 54.67504883 C-24.70597281 43.3698433 -18.38370356 32.16912388 -12 21 C-10.97687037 19.20915722 -9.95376022 17.41830331 -8.93066406 15.62744141 C-5.95433514 10.41797467 -2.97734855 5.20888405 0 0 Z M31 11 C30.42894531 12.10472656 29.85789062 13.20945312 29.26953125 14.34765625 C24.45481214 23.60471313 19.48518424 32.75019675 14.3125 41.8125 C9.5921725 50.08511127 5.09836811 58.40087855 1 67 C19.72626524 68.00290168 19.72626524 68.00290168 36 60 C40.28800672 54.36350248 42.49704677 48.67454196 45 42 C36.09 41.67 27.18 41.34 18 41 C23 32 23 32 25.83203125 31.078125 C27.30736328 31.16320312 27.30736328 31.16320312 28.8125 31.25 C33.73569112 31.14743352 37.09590907 30.86457835 41.17578125 28.0078125 C45.29830027 23.47039328 47.58667595 17.57327024 50 12 C49.02667739 10.80658248 49.02667739 10.80658248 47.23413086 10.88647461 C46.48526611 10.89171143 45.73640137 10.89694824 44.96484375 10.90234375 C44.15595703 10.90556641 43.34707031 10.90878906 42.51367188 10.91210938 C41.2384668 10.92467773 41.2384668 10.92467773 39.9375 10.9375 C39.08349609 10.94201172 38.22949219 10.94652344 37.34960938 10.95117188 C35.23304337 10.96299627 33.11651315 10.98093231 31 11 Z " fill="#000000" transform="translate(1521,489)"/>
<path d="M0 0 C2.22001508 0.01477929 4.4400676 0.02467101 6.66012573 0.02989197 C11.30637598 0.05278506 15.94984399 0.11436238 20.59521484 0.20727539 C26.54841907 0.32613984 32.49981726 0.38012419 38.45407295 0.40920353 C44.1362929 0.43912931 49.81807345 0.49876169 55.5 0.5625 C56.58335758 0.57268724 57.66671516 0.58287449 58.78290176 0.59337044 C61.84945067 0.6281324 64.91486606 0.68369178 67.98095703 0.74633789 C68.88705719 0.7544046 69.79315735 0.76247131 70.72671509 0.77078247 C75.47689053 0.89243623 78.79267136 1.14942952 82.6171875 4.27734375 C84.6171875 7.27734375 84.6171875 7.27734375 84.49609375 10.48828125 C82.68166872 18.31046917 77.56372147 27.89825746 70.8046875 32.52734375 C60.73971723 37.4611527 48.57594419 38.4465562 37.6171875 40.27734375 C47.46803814 50.92103399 47.46803814 50.92103399 57.6171875 61.27734375 C65.42249861 68.99378984 65.42249861 68.99378984 68.6171875 73.27734375 C68.6171875 73.93734375 68.6171875 74.59734375 68.6171875 75.27734375 C62.35586989 75.53199561 56.09589607 75.70645045 49.83056641 75.82666016 C47.70212925 75.87679049 45.5740338 75.94491817 43.44677734 76.03173828 C25.76828944 76.73490696 25.76828944 76.73490696 20.55493164 73.20239258 C18.51763687 70.65202603 17.05699506 68.19830374 15.6171875 65.27734375 C14.10042669 63.41984417 12.5804939 61.5649202 11.0546875 59.71484375 C10.31476563 58.8021875 9.57484375 57.88953125 8.8125 56.94921875 C7.37939346 55.20501079 5.91668032 53.48459897 4.421875 51.79296875 C2.61042093 49.6760538 0.9759326 47.70978253 -0.3828125 45.27734375 C0.0546875 41.96484375 0.0546875 41.96484375 1.6171875 39.27734375 C1.86984375 38.58366699 2.1225 37.88999023 2.3828125 37.17529297 C3.6171875 35.27734375 3.6171875 35.27734375 5.98046875 34.55126953 C6.95371094 34.44282715 7.92695312 34.33438477 8.9296875 34.22265625 C10.00605469 34.08214844 11.08242187 33.94164062 12.19140625 33.796875 C14.44353535 33.53750779 16.69613395 33.28217973 18.94921875 33.03125 C26.93886411 31.97923264 32.23598119 30.33641656 38.6171875 25.27734375 C40.5971875 21.31734375 42.5771875 17.35734375 44.6171875 13.27734375 C33.0671875 13.27734375 21.5171875 13.27734375 9.6171875 13.27734375 C7.60625 16.89703125 7.60625 16.89703125 5.5546875 20.58984375 C5.08289062 21.43893311 4.61109375 22.28802246 4.125 23.1628418 C1.39187094 28.08176657 -1.33982403 33.0014839 -4.0703125 37.921875 C-15.61431682 58.72097363 -15.61431682 58.72097363 -20.7578125 67.90234375 C-21.12076416 68.55283691 -21.48371582 69.20333008 -21.85766602 69.87353516 C-24.26576384 74.16029509 -24.26576384 74.16029509 -25.3828125 75.27734375 C-28.12175335 75.36593021 -30.8353452 75.39257854 -33.57421875 75.375 C-34.39405746 75.37358505 -35.21389618 75.3721701 -36.05857849 75.37071228 C-38.68752632 75.36509664 -41.31639023 75.35254154 -43.9453125 75.33984375 C-45.72330607 75.33483076 -47.50130096 75.33026751 -49.27929688 75.32617188 C-53.64716795 75.31512214 -58.01497598 75.29784706 -62.3828125 75.27734375 C-61.06882857 70.97459638 -59.40497762 67.222858 -57.21484375 63.296875 C-56.57603271 62.14566162 -55.93722168 60.99444824 -55.27905273 59.80834961 C-54.58458928 58.56878231 -53.8900063 57.32928197 -53.1953125 56.08984375 C-52.47878955 54.80307096 -51.76273192 53.51603895 -51.04711914 52.22875977 C-49.56748116 49.56872462 -48.08507066 46.91026288 -46.60058594 44.25292969 C-44.46913532 40.43550698 -42.35015507 36.61128084 -40.234375 32.78515625 C-38.929909 30.42826274 -37.62509833 28.07156024 -36.3203125 25.71484375 C-35.72645752 24.64145752 -35.13260254 23.56807129 -34.52075195 22.4621582 C-33.94800537 21.43050537 -33.37525879 20.39885254 -32.78515625 19.3359375 C-32.29523193 18.45220459 -31.80530762 17.56847168 -31.30053711 16.65795898 C-30.66768799 15.54235596 -30.03483887 14.42675293 -29.3828125 13.27734375 C-28.89581879 11.79017601 -28.89581879 11.79017601 -28.39898682 10.27296448 C-23.18424773 -2.64511624 -11.98240701 -0.30400178 0 0 Z " fill="#000000" transform="translate(1279.3828125,487.72265625)"/>
<path d="M0 0 C1.98868429 0.00732164 3.97738232 0.01151471 5.96607971 0.01274109 C10.11104266 0.02345199 14.25460438 0.06033119 18.39916992 0.1184082 C23.70764442 0.19229741 29.01492519 0.21767416 34.32386684 0.22582722 C38.42033167 0.23441196 42.51655049 0.25952891 46.61290169 0.29057884 C48.5708827 0.30513039 50.52888887 0.31663285 52.48690605 0.32500648 C55.21754055 0.34093901 57.94715145 0.37696566 60.67749023 0.41918945 C61.48222778 0.42097198 62.28696533 0.42275452 63.11608887 0.42459106 C67.68185185 0.52048653 70.67318632 1.07301626 74.31640625 3.88671875 C76.38649885 6.52138206 76.32633141 7.76642799 76.04736328 11.14746094 C75.29516207 14.99539474 74.16903236 17.56719889 72.24609375 20.96484375 C71.60373779 22.113479 70.96138184 23.26211426 70.29956055 24.44555664 C69.59706973 25.67607379 68.89434625 26.90645814 68.19140625 28.13671875 C67.47265294 29.41273288 66.75497597 30.68935383 66.03833008 31.96655273 C64.55300972 34.6111596 63.06221173 37.25257051 61.56787109 39.89208984 C59.36014079 43.79913741 57.18728941 47.72477011 55.0234375 51.65625 C54.34069197 52.89487574 53.65791264 54.13348285 52.97509766 55.37207031 C51.68322001 57.71582281 50.3927715 60.0603443 49.10302734 62.40527344 C48.51730957 63.46262695 47.9315918 64.51998047 47.328125 65.609375 C46.81725342 66.53500244 46.30638184 67.46062988 45.7800293 68.41430664 C45.29703369 69.23020264 44.81403809 70.04609863 44.31640625 70.88671875 C43.97457809 71.5867099 43.63274994 72.28670105 43.28056335 73.00790405 C40.15403016 75.99858973 36.52550672 75.4512601 32.42626953 75.42016602 C31.06240616 75.43308937 31.06240616 75.43308937 29.67098999 75.4462738 C26.65927826 75.4690134 23.64849118 75.46217928 20.63671875 75.453125 C18.54547854 75.45835775 16.45424069 75.46463295 14.36300659 75.47190857 C9.97642934 75.48232809 5.59017614 75.47773003 1.20361328 75.46313477 C-4.41801675 75.44596157 -10.03862333 75.46941642 -15.66013908 75.50462437 C-19.98046646 75.52658801 -24.3005487 75.52515906 -28.62091446 75.51685905 C-30.69336188 75.51603865 -32.76582714 75.52291908 -34.8382225 75.53763008 C-37.7376763 75.55505269 -40.63528824 75.5405514 -43.53466797 75.51782227 C-44.81908783 75.53536057 -44.81908783 75.53536057 -46.12945557 75.55325317 C-50.50171417 75.48352589 -52.17215676 75.29244496 -55.71499634 72.48188782 C-58.29320637 69.08307662 -58.38233687 67.37410337 -58.13671875 63.25488281 C-57.34064876 59.09438769 -55.42402173 55.81307417 -53.18359375 52.26171875 C-52.72509033 51.51825195 -52.26658691 50.77478516 -51.79418945 50.00878906 C-44.51381577 38.55571904 -36.01831029 34.05823891 -22.8046875 30.984375 C-15.03777776 29.4326736 -7.18518491 28.54207334 0.69140625 27.76171875 C1.56821045 27.67156494 2.44501465 27.58141113 3.34838867 27.48852539 C7.80068161 27.06957742 12.12303818 26.86029138 16.59375 27.03515625 C17.86436279 27.05666748 17.86436279 27.05666748 19.16064453 27.07861328 C21.62890625 27.13671875 21.62890625 27.13671875 23.92529297 27.37060547 C26.51751536 27.53715199 26.51751536 27.53715199 30.31640625 25.88671875 C32.95640625 21.26671875 35.59640625 16.64671875 38.31640625 11.88671875 C14.88640625 11.88671875 -8.54359375 11.88671875 -32.68359375 11.88671875 C-32.68359375 8.88671875 -32.68359375 8.88671875 -30.78575134 6.87492371 C-20.91074245 -0.57776646 -11.94344172 -0.20928628 0 0 Z M-8.68359375 42.88671875 C-11.13390645 46.01453726 -12.89457492 49.35004568 -14.68359375 52.88671875 C-15.63881986 54.53435743 -16.59696134 56.18031083 -17.55859375 57.82421875 C-19.16084393 60.60044469 -19.68359375 61.60673363 -19.68359375 64.88671875 C-10.11359375 64.88671875 -0.54359375 64.88671875 9.31640625 64.88671875 C11.21390625 61.58671875 13.11140625 58.28671875 15.06640625 54.88671875 C15.65647461 53.86320313 16.24654297 52.8396875 16.85449219 51.78515625 C19.84960156 46.55938812 22.68414166 41.30458372 25.31640625 35.88671875 C15.09994475 35.33940831 -0.29877446 36.3731896 -8.68359375 42.88671875 Z " fill="#000000" transform="translate(1416.68359375,488.11328125)"/>
<path d="M0 0 C1.56047445 0.00015913 3.12095416 0.00585397 4.68139648 0.01586914 C5.5012352 0.01728409 6.32107391 0.01869904 7.16575623 0.02015686 C9.79470406 0.0257725 12.42356797 0.0383276 15.05249023 0.05102539 C16.8304838 0.05603838 18.60847869 0.06060163 20.38647461 0.06469727 C24.75434569 0.07574701 29.12215371 0.09302208 33.48999023 0.11352539 C32.82228701 3.40238937 31.60809975 6.0043699 30.00561523 8.94555664 C29.23121094 10.37266968 29.23121094 10.37266968 28.44116211 11.82861328 C27.59908203 13.36183228 27.59908203 13.36183228 26.73999023 14.92602539 C26.15797852 15.99264404 25.5759668 17.0592627 24.97631836 18.15820312 C19.47281879 28.21216083 13.84035932 38.1918247 8.17211914 48.15356445 C5.16386851 53.44703769 2.17193995 58.74973753 -0.82250977 64.05102539 C-2.69938477 67.37165039 -4.57625977 70.69227539 -6.51000977 74.11352539 C-19.05000977 74.11352539 -31.59000977 74.11352539 -44.51000977 74.11352539 C-42.95041657 70.2145424 -41.3298294 66.80992501 -39.30688477 63.16040039 C-38.99249451 62.59146561 -38.67810425 62.02253082 -38.35418701 61.43635559 C-37.32571172 59.57711254 -36.29297485 57.72027717 -35.26000977 55.86352539 C-34.54042472 54.56536891 -33.82102599 53.26710913 -33.10180664 51.96875 C-30.90950435 48.01424012 -28.71073958 44.06335022 -26.51000977 40.11352539 C-26.17541748 39.51284241 -25.8408252 38.91215942 -25.49609375 38.29327393 C-4.23714976 0.13704352 -4.23714976 0.13704352 0 0 Z " fill="#000000" transform="translate(1115.510009765625,488.886474609375)"/>
<path d="M0 0 C1.54492211 0.00094554 3.09005622 0.03460016 4.63378906 0.09521484 C5.85717987 0.10794937 5.85717987 0.10794937 7.10528564 0.12094116 C9.70468504 0.15447115 12.30095628 0.22974125 14.89941406 0.30615234 C16.6636921 0.33625285 18.42801888 0.36362852 20.19238281 0.38818359 C24.51259447 0.4542601 28.83047439 0.55777215 33.14941406 0.68115234 C31.82918987 4.13179944 30.32734957 7.36355511 28.56738281 10.61083984 C28.05425537 11.55910645 27.54112793 12.50737305 27.01245117 13.484375 C26.45952393 14.49806152 25.90659668 15.51174805 25.33691406 16.55615234 C24.76013916 17.61753418 24.18336426 18.67891602 23.58911133 19.77246094 C19.13730768 27.93661815 14.58225267 36.03919642 9.98535156 44.12231445 C4.24160452 54.23778847 -1.3038297 64.45640891 -6.85058594 74.68115234 C-19.39058594 74.68115234 -31.93058594 74.68115234 -44.85058594 74.68115234 C-35.74892285 56.47782616 -35.74892285 56.47782616 -30.85058594 47.99365234 C-27.04953803 41.34595939 -23.28325732 34.6820012 -19.59667969 27.97021484 C-19.2380484 27.31754135 -18.87941711 26.66486786 -18.50991821 25.99241638 C-17.08685114 23.40074072 -15.66479357 20.80853522 -14.24780273 18.21353149 C-13.2621582 16.40853887 -12.2733491 14.60530874 -11.28417969 12.80224609 C-10.71755615 11.76511475 -10.15093262 10.7279834 -9.56713867 9.65942383 C-9.00067627 8.67659424 -8.43421387 7.69376465 -7.85058594 6.68115234 C-7.2947583 5.57698975 -6.73893066 4.47282715 -6.16625977 3.33520508 C-3.85058594 0.68115234 -3.85058594 0.68115234 0 0 Z " fill="#000000" transform="translate(1649.8505859375,488.31884765625)"/>
<path d="M0 0 C-1 3 -1 3 -3.96923828 4.7265625 C-5.28985202 5.36921717 -6.61565453 6.00127301 -7.9453125 6.625 C-9.41336357 7.33536402 -10.88112668 8.0463234 -12.34863281 8.7578125 C-13.11469849 9.12551758 -13.88076416 9.49322266 -14.67004395 9.87207031 C-18.44723746 11.70060639 -22.18636267 13.60337388 -25.9296875 15.5 C-27.4177142 16.24920371 -28.90599585 16.99790125 -30.39453125 17.74609375 C-32.66465476 18.88737162 -34.9341109 20.02988419 -37.20166016 21.17626953 C-39.44249072 22.30872214 -41.68580424 23.43611093 -43.9296875 24.5625 C-44.95447708 25.08263672 -44.95447708 25.08263672 -45.99996948 25.61328125 C-50.7722607 28 -50.7722607 28 -53 28 C-46.99607077 35.60187422 -40.62305007 42.72266202 -34.00390625 49.78515625 C-30.57442979 53.44488397 -27.24394503 57.17472854 -24 61 C-23.58556641 61.48807129 -23.17113281 61.97614258 -22.74414062 62.47900391 C-21.34638562 64.1286111 -19.95355218 65.78223784 -18.5625 67.4375 C-18.11237549 67.97068848 -17.66225098 68.50387695 -17.19848633 69.05322266 C-14 72.88345507 -14 72.88345507 -14 74 C-20.10111915 74.27334421 -26.19862959 74.47214996 -32.30444336 74.60424805 C-34.37766633 74.65933797 -36.45046629 74.73423996 -38.5222168 74.82983398 C-55.71515372 75.60287539 -55.71515372 75.60287539 -61.203125 71.75292969 C-63.48886345 68.9495387 -65.2466607 66.15740675 -67 63 C-68.04883355 61.69583302 -69.13119969 60.41728473 -70.2578125 59.1796875 C-70.73524902 58.62917725 -71.21268555 58.07866699 -71.70458984 57.51147461 C-72.1733252 56.97143799 -72.64206055 56.43140137 -73.125 55.875 C-74.62788021 54.11891454 -76.12778691 52.36033068 -77.62695312 50.60107422 C-78.86956115 49.15210134 -80.12914009 47.7177249 -81.390625 46.28515625 C-82.04546875 45.51042969 -82.7003125 44.73570312 -83.375 43.9375 C-83.93960937 43.28652344 -84.50421875 42.63554688 -85.0859375 41.96484375 C-86 40 -86 40 -85.4140625 37.62890625 C-81.77884893 30.87062247 -78.7918027 27.82106702 -71.96484375 24.609375 C-71.17832428 24.222621 -70.39180481 23.835867 -69.58145142 23.43739319 C-67.0409717 22.19210383 -64.49022996 20.96995609 -61.9375 19.75 C-58.45311146 18.0665705 -54.97231134 16.37581881 -51.4921875 14.68359375 C-50.64755447 14.27489548 -49.80292145 13.8661972 -48.93269348 13.44511414 C-43.69777234 10.89338248 -38.683382 8.12241395 -33.70458984 5.09814453 C-22.89580039 -1.3891002 -12.32868081 -1.08102557 0 0 Z " fill="#000000" transform="translate(1222,489)"/>
<path d="M0 0 C1.80868813 0.00333092 1.80868813 0.00333092 3.65391541 0.00672913 C4.31730423 0.0065831 4.98069305 0.00643707 5.66418457 0.00628662 C7.86644207 0.00698571 10.06861596 0.01477787 12.27085876 0.02259827 C13.79400588 0.02446246 15.31715359 0.02588636 16.84030151 0.02688599 C20.85657903 0.03071105 24.87282059 0.04054124 28.88908386 0.05158997 C32.98443617 0.06180433 37.07979427 0.06638366 41.17515564 0.07142639 C49.21618779 0.08216352 57.25719069 0.0992398 65.29820251 0.12025452 C61.85662665 10.44498212 55.65336914 19.64572894 50.29820251 29.12025452 C27.85820251 29.12025452 5.41820251 29.12025452 -17.70179749 29.12025452 C-16.77021489 25.39392415 -15.61702025 22.85736449 -13.79554749 19.51478577 C-12.92736389 17.91667053 -12.92736389 17.91667053 -12.04164124 16.28627014 C-11.4344928 15.17960999 -10.82734436 14.07294983 -10.20179749 12.93275452 C-9.59464905 11.8144928 -8.98750061 10.69623108 -8.36195374 9.54408264 C-3.23674657 0.14406461 -3.23674657 0.14406461 0 0 Z " fill="#000000" transform="translate(1303.7017974853516,323.87974548339844)"/>
<path d="M0 0 C0.495 1.485 0.495 1.485 1 3 C-1.84494877 8.04997681 -5.31254912 13.42613585 -10.5 16.25 C-11.325 16.8275 -12.15 17.405 -13 18 C-13.04665734 20.33286681 -13.03762951 22.66697011 -13 25 C-15.70984897 33.14263797 -20.65410316 38.71106347 -27.8984375 43.16796875 C-30.5427713 44.21488901 -32.7233439 44.30091161 -35.5625 44.3125 C-36.51253906 44.32925781 -37.46257812 44.34601563 -38.44140625 44.36328125 C-41 44 -41 44 -42.8359375 42.671875 C-44 41 -44 41 -44.0625 37.9375 C-42.41987932 29.67197255 -36.94788303 23.37799679 -30.5390625 18.27734375 C-29.77722656 17.64505859 -29.77722656 17.64505859 -29 17 C-29 16.67 -29 16.34 -29 16 C-30.32 15.34 -31.64 14.68 -33 14 C-32.34 12.02 -31.68 10.04 -31 8 C-30.195625 8.185625 -29.39125 8.37125 -28.5625 8.5625 C-27.716875 8.706875 -26.87125 8.85125 -26 9 C-25.67 8.67 -25.34 8.34 -25 8 C-22.66702567 7.95907063 -20.33294775 7.95758277 -18 8 C-18 9.98 -18 11.96 -18 14 C-12.33826275 9.36656438 -12.33826275 9.36656438 -7.875 3.625 C-6 1 -6 1 -2.75 0.125 C-1.8425 0.08375 -0.935 0.0425 0 0 Z M-30.2421875 25.14453125 C-32.94027975 27.99251752 -34.9035094 31.21871992 -36 35 C-35.67 35.99 -35.34 36.98 -35 38 C-31.28297509 37.74067268 -29.33657724 37.26445355 -26.375 34.9375 C-23.60362735 31.50974961 -21.78133016 28.01048076 -20 24 C-21.37485532 22.45833358 -21.37485532 22.45833358 -23 21 C-26.21966635 21 -27.90004985 23.08168617 -30.2421875 25.14453125 Z " fill="#58595B" transform="translate(1535,257)"/>
<path d="M0 0 C0 4 0 4 -2 7 C-3.99954746 7.04254356 -6.00041636 7.04080783 -8 7 C-8.99 7.66 -9.98 8.32 -11 9 C-11 9.99 -11 10.98 -11 12 C-8.525 12.495 -8.525 12.495 -6 13 C-7.875 17.75 -7.875 17.75 -9 20 C-11.22596002 20.84692901 -13.48363587 21.46846299 -15.7734375 22.12109375 C-18.22765907 23.08986542 -19.39533356 23.91787146 -21 26 C-21.71447643 28.10332891 -21.71447643 28.10332891 -22 30 C-20.60316918 29.96652475 -19.20719363 29.89668216 -17.8125 29.8125 C-17.03519531 29.77769531 -16.25789063 29.74289062 -15.45703125 29.70703125 C-8.84592958 27.80463156 -6.06126766 20.975812 -2.93945312 15.38476562 C-2.36130859 14.32966797 -1.78316406 13.27457031 -1.1875 12.1875 C-0.2912793 10.57584961 -0.2912793 10.57584961 0.62304688 8.93164062 C2.08960624 6.29183377 3.54827061 3.6479824 5 1 C7.64 1 10.28 1 13 1 C-1.25600685 30.71486429 -1.25600685 30.71486429 -12.359375 36.15625 C-15.3738097 37.11944215 -17.90114046 37.30051001 -21.0625 37.3125 C-22.08472656 37.32925781 -23.10695313 37.34601563 -24.16015625 37.36328125 C-27.32163483 36.95885552 -28.6711864 36.11659558 -31 34 C-30.56303463 28.53793293 -29.50321584 25.24073496 -26 21 C-23.7428438 19.15940052 -21.44462914 17.59841136 -19 16 C-19.2475 15.319375 -19.495 14.63875 -19.75 13.9375 C-20.1037073 9.78143918 -18.56526365 7.11971544 -16 4 C-11.14579624 -0.28976147 -6.24807779 -0.51004717 0 0 Z " fill="#58595B" transform="translate(1648,264)"/>
<path d="M0 0 C0.76171875 1.65234375 0.76171875 1.65234375 1 4 C-0.73046875 6.69140625 -0.73046875 6.69140625 -3.1875 9.5625 C-4.38439453 10.98755859 -4.38439453 10.98755859 -5.60546875 12.44140625 C-7.64653167 14.62231362 -9.48704342 16.40182419 -12 18 C-12.66 18 -13.32 18 -14 18 C-13.67 18.66 -13.34 19.32 -13 20 C-12.70403109 26.20247886 -14.31811996 30.40812646 -18.24609375 35.140625 C-26.28063393 43.65831125 -26.28063393 43.65831125 -32.59375 44.23828125 C-34.03234375 44.27501953 -34.03234375 44.27501953 -35.5 44.3125 C-36.93859375 44.36857422 -36.93859375 44.36857422 -38.40625 44.42578125 C-41 44 -41 44 -42.90625 42.35546875 C-44.41173397 39.11330148 -43.97021732 37.41085288 -43 34 C-39.70505036 27.2859432 -35.45635359 21.96264212 -29.6015625 17.33984375 C-27.8697967 16.07214556 -27.8697967 16.07214556 -27 14 C-28.98 14 -30.96 14 -33 14 C-31.125 9.125 -31.125 9.125 -30 8 C-28.31391034 7.92794489 -26.62499341 7.91613932 -24.9375 7.9375 C-24.01839844 7.94652344 -23.09929687 7.95554687 -22.15234375 7.96484375 C-21.44207031 7.97644531 -20.73179688 7.98804688 -20 8 C-19.34 9.65 -18.68 11.3 -18 13 C-16.1197527 12.91198678 -16.1197527 12.91198678 -14 12 C-11.86288545 9.26587774 -10.05825775 6.39515793 -8.1953125 3.46875 C-6 1 -6 1 -2.7421875 0.15625 C-1.83726563 0.1046875 -0.93234375 0.053125 0 0 Z M-28 22.875 C-31.59725424 26.20129224 -34.27636639 30.42079429 -36 35 C-35.67 35.99 -35.34 36.98 -35 38 C-30.10494044 37.54464562 -27.44916647 36.53993401 -24 33 C-21.7528625 29.36944561 -20 26.31884414 -20 22 C-23.61229641 20.61882784 -24.65862597 20.78664123 -28 22.875 Z " fill="#58595B" transform="translate(1588,257)"/>
<path d="M0 0 C0.66 0.66 1.32 1.32 2 2 C2.99 1.34 3.98 0.68 5 0 C7.83079592 -0.35384949 9.36830089 -0.3920891 11.8125 1.125 C13.53338841 3.84219223 13.22736149 5.82274412 13 9 C11.96191406 11.60546875 11.96191406 11.60546875 10.515625 14.1875 C9.99226563 15.13367188 9.46890625 16.07984375 8.9296875 17.0546875 C8.09824219 18.51261719 8.09824219 18.51261719 7.25 20 C6.71117187 20.97195313 6.17234375 21.94390625 5.6171875 22.9453125 C4.10730312 25.6483738 2.56468602 28.32836492 1 31 C0.62004883 31.66338379 0.24009766 32.32676758 -0.15136719 33.01025391 C-1.15625 34.6640625 -1.15625 34.6640625 -3 37 C-6.75 37.375 -6.75 37.375 -10 37 C-8.64545205 33.42293354 -7.05208976 30.13823771 -5.1796875 26.8046875 C-4.64472656 25.84175781 -4.10976562 24.87882812 -3.55859375 23.88671875 C-2.43100938 21.86962467 -1.30077512 19.85400977 -0.16796875 17.83984375 C0.36441406 16.87949219 0.89679688 15.91914063 1.4453125 14.9296875 C1.93531738 14.05554199 2.42532227 13.18139648 2.93017578 12.28076172 C4.21233363 9.96719288 4.21233363 9.96719288 4 7 C3.236875 7.66 2.47375 8.32 1.6875 9 C-1 11 -1 11 -4 11 C-4 9.68 -4 8.36 -4 7 C-10.95098966 10.66857788 -14.90620084 16.91780915 -18 24 C-18.42408395 27.37931712 -18.42408395 27.37931712 -18 30 C-16.02 30 -14.04 30 -12 30 C-12.61277612 32.96175123 -13.25372522 34.38058783 -15 37 C-18.04114677 37.64054514 -20.93900311 37.48125362 -24 37 C-26.125 35.5625 -26.125 35.5625 -27 33 C-27.5854785 23.41766847 -22.63155995 15.59469617 -16.5625 8.625 C-7.41163629 -1.01067768 -7.41163629 -1.01067768 0 0 Z " fill="#58595B" transform="translate(1704,264)"/>
<path d="M0 0 C0.66 0.66 1.32 1.32 2 2 C2.99 1.34 3.98 0.68 5 0 C8.625 0.25 8.625 0.25 12 1 C13.44910805 3.89821609 13.30287429 5.75812339 13 9 C11.89248555 11.86923512 10.44056955 14.50818063 8.9375 17.1875 C8.32285889 18.30209595 8.32285889 18.30209595 7.69580078 19.43920898 C6.8655539 20.93245761 6.02839742 22.42188725 5.18408203 23.90722656 C4.12623071 25.77689699 3.10500914 27.66167378 2.08984375 29.5546875 C1.52394531 30.54726563 0.95804688 31.53984375 0.375 32.5625 C-0.11226562 33.43003906 -0.59953125 34.29757812 -1.1015625 35.19140625 C-3 37 -3 37 -6.7109375 37.27734375 C-7.79632812 37.18582031 -8.88171875 37.09429687 -10 37 C-1.88549068 20.40026774 -1.88549068 20.40026774 2.96875 13.015625 C4.30365054 10.78385387 4.30365054 10.78385387 4 7 C3.236875 7.66 2.47375 8.32 1.6875 9 C-1 11 -1 11 -4 11 C-4 9.68 -4 8.36 -4 7 C-7.96842301 9.09008165 -10.18123134 11.16910163 -12.6875 14.875 C-13.26886719 15.71804688 -13.85023437 16.56109375 -14.44921875 17.4296875 C-17.02189019 21.6937122 -18.28581432 24.9982494 -18 30 C-15.69 30 -13.38 30 -11 30 C-13.875 35.875 -13.875 35.875 -15 37 C-18.99412039 37.48534132 -22.71822958 37.86707999 -26.125 35.5625 C-27.84427441 30.52748209 -26.88963889 26.17185864 -24.90234375 21.3203125 C-20.11692776 11.90943871 -11.96983926 -1.32998214 0 0 Z " fill="#58595B" transform="translate(1485,264)"/>
<path d="M0 0 C1 3 1 3 -0.00048828 5.35668945 C-0.77755127 6.72120239 -0.77755127 6.72120239 -1.5703125 8.11328125 C-2.1375 9.11423828 -2.7046875 10.11519531 -3.2890625 11.14648438 C-4.19785156 12.71366211 -4.19785156 12.71366211 -5.125 14.3125 C-5.70765625 15.34568359 -6.2903125 16.37886719 -6.890625 17.44335938 C-11.50252741 25.503848 -16.02050186 33.3584011 -25 37 C-29.51562838 37.71978437 -33.39938045 38.0670797 -37.296875 35.46875 C-37.85890625 34.9840625 -38.4209375 34.499375 -39 34 C-39.33 34.99 -39.66 35.98 -40 37 C-42.31 37 -44.62 37 -47 37 C-45.7429732 32.90997809 -44.22770149 29.33870562 -42.1015625 25.62890625 C-41.25851562 24.14874023 -41.25851562 24.14874023 -40.3984375 22.63867188 C-39.81320312 21.62353516 -39.22796875 20.60839844 -38.625 19.5625 C-37.75875 18.0455957 -37.75875 18.0455957 -36.875 16.49804688 C-35.25474974 13.66260892 -33.62803288 10.8309741 -32 8 C-30.66526751 5.66746263 -29.33262817 3.33374046 -28 1 C-25.36 1 -22.72 1 -20 1 C-23.57464263 8.38497598 -27.38782989 15.50873573 -31.6796875 22.50390625 C-33.23378495 24.97134877 -33.23378495 24.97134877 -33 28 C-29.60990488 28.88788206 -27.40585207 29.10991827 -24 28.1875 C-19.05472874 24.58157304 -16.84408087 19.38383235 -13.95556641 14.08349609 C-12.82170724 12.02421863 -11.66177373 9.98113131 -10.5 7.9375 C-10.14446045 7.27008789 -9.7889209 6.60267578 -9.42260742 5.91503906 C-7.4834394 2.52204356 -6.55173043 1.15698044 -2.71875 0.06640625 C-1.8215625 0.04449219 -0.924375 0.02257812 0 0 Z " fill="#58595B" transform="translate(1468,264)"/>
<path d="M0 0 C2.63460897 2.54962158 2.68350007 4.25331133 2.9375 7.875 C1.49108683 12.14161624 -0.83983196 15.96457988 -3.0625 19.875 C-3.55411621 20.75091797 -3.55411621 20.75091797 -4.05566406 21.64453125 C-10.70747368 33.39883583 -10.70747368 33.39883583 -16.0625 35.875 C-17.0525 35.875 -18.0425 35.875 -19.0625 35.875 C-18.49298457 32.21296751 -17.52897144 29.59308234 -15.59375 26.44140625 C-15.10519531 25.62736328 -14.61664062 24.81332031 -14.11328125 23.97460938 C-13.08116476 22.28604601 -12.04731536 20.59854062 -11.01171875 18.91210938 C-8.40483726 14.56157496 -6.39986489 11.06198526 -6.0625 5.875 C-7.66767097 5.96233576 -9.27171662 6.07052224 -10.875 6.1875 C-11.76832031 6.24550781 -12.66164063 6.30351562 -13.58203125 6.36328125 C-16.37631547 6.93973988 -17.40416919 7.57841128 -19.0625 9.875 C-18.85625 10.49375 -18.65 11.1125 -18.4375 11.75 C-18.31375 12.45125 -18.19 13.1525 -18.0625 13.875 C-19.24935451 15.02782284 -20.43823724 16.17863033 -21.63720703 17.31884766 C-24.28434956 20.20903034 -25.9758362 23.68666643 -27.8125 27.125 C-31.98817568 34.80067568 -31.98817568 34.80067568 -33.0625 35.875 C-35.06208364 35.91580783 -37.06295254 35.91754356 -39.0625 35.875 C-38.55779357 30.5966119 -35.7727111 26.66162141 -33.0625 22.25 C-32.14334006 20.73849254 -31.22656923 19.22552895 -30.3125 17.7109375 C-29.90515625 17.04626465 -29.4978125 16.3815918 -29.078125 15.69677734 C-27.9157919 13.74444402 -27.9157919 13.74444402 -27.0625 10.875 C-27.3925 9.885 -27.7225 8.895 -28.0625 7.875 C-19.57033439 1.05920994 -11.01585217 -4.04663957 0 0 Z " fill="#58595B" transform="translate(1623.0625,265.125)"/>
<path d="M0 0 C2.29226265 3.35652745 1.92036704 5.08450385 1.39160156 9.00170898 C0.19267703 13.78691425 -2.39416202 17.73357892 -5 21.875 C-5.5259375 22.75478516 -6.051875 23.63457031 -6.59375 24.54101562 C-11.708883 32.87842919 -11.708883 32.87842919 -16.25 35.5625 C-17.57 35.5625 -18.89 35.5625 -20.25 35.5625 C-18.43227173 28.83909542 -14.65423791 23.26545017 -11.0625 17.375 C-10.57523438 16.55773437 -10.08796875 15.74046875 -9.5859375 14.8984375 C-9.13782715 14.16157715 -8.6897168 13.4247168 -8.22802734 12.66552734 C-6.96887569 10.34455945 -6.96887569 10.34455945 -7.25 6.5625 C-12.09492197 5.04846188 -15.5091011 6.19647828 -20.25 7.5625 C-19.981875 8.42875 -19.71375 9.295 -19.4375 10.1875 C-19.2123384 14.24040877 -20.25404798 14.91370363 -22.8269043 17.81884766 C-25.35575085 20.91732459 -27.15851077 24.43365293 -29.0625 27.9375 C-29.46919922 28.67355469 -29.87589844 29.40960938 -30.29492188 30.16796875 C-31.28568194 31.96299288 -32.26866041 33.76230842 -33.25 35.5625 C-35.56 35.5625 -37.87 35.5625 -40.25 35.5625 C-38.79349378 30.45681245 -36.51847809 26.34613634 -33.75 21.875 C-33.34652344 21.21177734 -32.94304687 20.54855469 -32.52734375 19.86523438 C-30.81672808 17.06219583 -29.07164506 14.2949676 -27.25 11.5625 C-27.55840599 9.40975052 -27.55840599 9.40975052 -28.25 7.5625 C-20.24563509 0.04472263 -10.85820502 -4.80266761 0 0 Z " fill="#58595B" transform="translate(1771.25,265.4375)"/>
<path d="M0 0 C1.670625 0.061875 1.670625 0.061875 3.375 0.125 C2.08223889 3.5232438 0.60671507 6.65412322 -1.19140625 9.8125 C-1.67673828 10.67617188 -2.16207031 11.53984375 -2.66210938 12.4296875 C-3.67998546 14.22823935 -4.70082706 16.02511607 -5.72460938 17.8203125 C-6.20865234 18.68398438 -6.69269531 19.54765625 -7.19140625 20.4375 C-7.63427979 21.21738281 -8.07715332 21.99726563 -8.53344727 22.80078125 C-9.68124096 25.24475262 -10.20589625 27.4662646 -10.625 30.125 C-9.22531261 29.92068833 -7.83017508 29.68513717 -6.4375 29.4375 C-5.66019531 29.30988281 -4.88289063 29.18226563 -4.08203125 29.05078125 C3.42240537 26.22319543 6.57456567 17.90600446 10.1875 11.3125 C11.0837207 9.70084961 11.0837207 9.70084961 11.99804688 8.05664062 C13.46460624 5.41683377 14.92327061 2.7729824 16.375 0.125 C19.015 0.125 21.655 0.125 24.375 0.125 C11.26452526 27.73411739 11.26452526 27.73411739 0.375 35.125 C-3.13211619 36.29403873 -5.99282386 36.29339619 -9.6875 36.3125 C-10.93660156 36.32667969 -12.18570312 36.34085937 -13.47265625 36.35546875 C-16.625 36.125 -16.625 36.125 -18.625 34.125 C-19.8785603 26.09847211 -16.14675898 20.56521772 -12.25 13.75 C-11.64671875 12.65816406 -11.0434375 11.56632812 -10.421875 10.44140625 C-4.68970457 0.16171395 -4.68970457 0.16171395 0 0 Z " fill="#58595B" transform="translate(1832.625,264.875)"/>
<path d="M0 0 C2.5625 1.5 2.5625 1.5 4 3 C3.34 4.98 2.68 6.96 2 9 C-1 9 -1 9 -4.375 7.875 C-7.86006101 6.75250303 -7.86006101 6.75250303 -10.8125 7.625 C-13.27233718 9.17118337 -14.01173216 10.30472408 -15 13 C-14.0925 13.268125 -13.185 13.53625 -12.25 13.8125 C-9.28528037 14.89576294 -7.3830246 15.98359457 -5 18 C-5.55763105 24.97038809 -7.81811701 29.25954064 -13.0625 33.8125 C-17.10709595 36.82443315 -20.00511914 37.19665916 -24.9375 37.3125 C-25.97777344 37.34988281 -27.01804687 37.38726562 -28.08984375 37.42578125 C-31.64802891 36.90518772 -32.76282667 35.73312501 -35 33 C-34.01 31.35 -33.02 29.7 -32 28 C-31.13375 28.33 -30.2675 28.66 -29.375 29 C-25.21774555 30.2317791 -21.92671252 30.58871771 -17.75 29.3125 C-15.41003249 27.55752436 -14.86635775 25.7434662 -14 23 C-16.97 21.35 -19.94 19.7 -23 18 C-23.50657287 12.68098483 -22.32610043 10.13515188 -19 6 C-13.2434225 0.68623615 -7.7369681 -0.9959903 0 0 Z " fill="#58595B" transform="translate(1798,264)"/>
<path d="M0 0 C1.299375 -0.02126953 1.299375 -0.02126953 2.625 -0.04296875 C5 0.1875 5 0.1875 8 2.1875 C7.50168276 5.87504757 6.89932357 7.79240662 4 10.1875 C3.34 9.5275 2.68 8.8675 2 8.1875 C-2.30785975 7.0387374 -5.08141242 6.9483071 -9 9.1875 C-9.33 10.1775 -9.66 11.1675 -10 12.1875 C-9.43410156 12.53683594 -8.86820313 12.88617188 -8.28515625 13.24609375 C-7.55167969 13.70113281 -6.81820313 14.15617187 -6.0625 14.625 C-5.33160156 15.07746094 -4.60070313 15.52992188 -3.84765625 15.99609375 C-2 17.1875 -2 17.1875 -1 18.1875 C-0.87655889 25.10020229 -3.20649629 28.27629556 -7.796875 33.3046875 C-11.98240488 36.8816829 -15.71286366 37.4646285 -21.125 37.4375 C-22.67574219 37.44523437 -22.67574219 37.44523437 -24.2578125 37.453125 C-27 37.1875 -27 37.1875 -30 35.1875 C-29.125 30.4375 -29.125 30.4375 -28 28.1875 C-27.13375 28.5175 -26.2675 28.8475 -25.375 29.1875 C-21.21774555 30.4192791 -17.92671252 30.77621771 -13.75 29.5 C-11.41003249 27.74502436 -10.86635775 25.9309662 -10 23.1875 C-10.84884766 22.87619141 -10.84884766 22.87619141 -11.71484375 22.55859375 C-14.00411085 21.5970211 -15.97808524 20.63293592 -18 19.1875 C-19.25 15.8125 -19.25 15.8125 -19 12.1875 C-16.54286002 7.06845838 -12.82014614 3.99459206 -8 1.1875 C-5.07345473 0.21198491 -3.05345004 0.02271912 0 0 Z " fill="#58595B" transform="translate(1677,263.8125)"/>
<path d="M0 0 C1 3 1 3 0.05957031 5.28076172 C-0.67374512 6.59197998 -0.67374512 6.59197998 -1.421875 7.9296875 C-2.21851563 9.37021484 -2.21851563 9.37021484 -3.03125 10.83984375 C-3.88203125 12.34224609 -3.88203125 12.34224609 -4.75 13.875 C-5.30171875 14.86886719 -5.8534375 15.86273438 -6.421875 16.88671875 C-8.8801779 21.30102708 -11.38534073 25.67620376 -14 30 C-13.34 30 -12.68 30 -12 30 C-13.875 34.75 -13.875 34.75 -15 37 C-20.75 37.125 -20.75 37.125 -23 36 C-22.50216005 30.93526071 -21.43699202 27.36013856 -18.91015625 22.953125 C-18.29076172 21.86128906 -17.67136719 20.76945312 -17.03320312 19.64453125 C-16.38287109 18.52433594 -15.73253906 17.40414063 -15.0625 16.25 C-14.41603516 15.11433594 -13.76957031 13.97867187 -13.10351562 12.80859375 C-8.50456134 4.756842 -8.50456134 4.756842 -6 1 C-2.875 0.3125 -2.875 0.3125 0 0 Z " fill="#58595B" transform="translate(1594,264)"/>
<path d="M0 0 C6.15234375 -0.09765625 6.15234375 -0.09765625 8 0 C9 1 9 1 9.0625 4.0625 C9.041875 5.031875 9.02125 6.00125 9 7 C10.32 4.69 11.64 2.38 13 0 C15.64 0 18.28 0 21 0 C16.06931226 11.43221404 16.06931226 11.43221404 10 14 C6.947658 14.39185472 4.04002329 14.52288401 1 14 C0.34 13.34 -0.32 12.68 -1 12 C-0.625 9.375 -0.625 9.375 0 7 C-0.66 6.67 -1.32 6.34 -2 6 C-1.34 4.02 -0.68 2.04 0 0 Z " fill="#58595B" transform="translate(1488,305)"/>
<path d="M0 0 C6.15234375 -0.09765625 6.15234375 -0.09765625 8 0 C9 1 9 1 9.0625 4.0625 C9.041875 5.031875 9.02125 6.00125 9 7 C10.32 4.69 11.64 2.38 13 0 C15.64 0 18.28 0 21 0 C16.06931226 11.43221404 16.06931226 11.43221404 10 14 C6.95990892 14.33891198 4.03676347 14.38998436 1 14 C0 13 0 13 -0.0625 9.9375 C-0.041875 8.968125 -0.02125 7.99875 0 7 C-0.66 6.67 -1.32 6.34 -2 6 C-1.34 4.02 -0.68 2.04 0 0 Z " fill="#58595B" transform="translate(1541,305)"/>
<path d="M0 0 C2.31 0 4.62 0 7 0 C5.7771754 4.04472754 4.57574614 7.62303678 2 11 C-0.54370117 11.56762695 -0.54370117 11.56762695 -3.54296875 11.48828125 C-4.61611328 11.47216797 -5.68925781 11.45605469 -6.79492188 11.43945312 C-7.91447266 11.39755859 -9.03402344 11.35566406 -10.1875 11.3125 C-11.31865234 11.28994141 -12.44980469 11.26738281 -13.61523438 11.24414062 C-16.41147976 11.18514811 -19.20508097 11.1028824 -22 11 C-20.84826645 8.53199953 -19.95216435 6.95216435 -18 5 C-15.25514407 4.85492305 -12.61519457 4.81347577 -9.875 4.875 C-9.12089844 4.88402344 -8.36679688 4.89304688 -7.58984375 4.90234375 C-5.72642746 4.9259313 -3.86317407 4.96180281 -2 5 C-1.34 3.35 -0.68 1.7 0 0 Z " fill="#58595B" transform="translate(1857,249)"/>
<path d="M0 0 C2.31 0 4.62 0 7 0 C6.45502497 4.63228774 5.24105175 7.60993438 2 11 C-2.09693879 11.76924334 -6.09997935 11.56276195 -10.25 11.375 C-11.93996094 11.33439453 -11.93996094 11.33439453 -13.6640625 11.29296875 C-16.44464237 11.22227604 -19.22135359 11.1236504 -22 11 C-20.39666773 8.649273 -19.12685204 6.83454823 -17 5 C-13.65184709 4.39895882 -10.65003764 4.34949881 -7.26367188 4.4140625 C-5.07147618 4.43323346 -5.07147618 4.43323346 -2 4 C-0.45341973 2.10005592 -0.45341973 2.10005592 0 0 Z " fill="#58595B" transform="translate(1630,249)"/>
<path d="M0 0 C1.03125 0.01804688 2.0625 0.03609375 3.125 0.0546875 C5.66761064 0.10177288 8.20833162 0.1675195 10.75 0.25 C10.24396008 2.41874252 9.75016187 4.24967627 8.75 6.25 C0.83 6.25 -7.09 6.25 -15.25 6.25 C-15.25 4.25 -15.25 4.25 -13.953125 2.140625 C-9.62030536 -0.88984423 -5.14377684 -0.16971853 0 0 Z " fill="#58595B" transform="translate(1714.25,253.75)"/>
<path d="M0 0 C0.89549561 0.0314209 1.79099121 0.0628418 2.71362305 0.09521484 C3.69008789 0.11455078 4.66655273 0.13388672 5.67260742 0.15380859 C6.68000977 0.20408203 7.68741211 0.25435547 8.7253418 0.30615234 C9.75208008 0.33322266 10.77881836 0.36029297 11.83666992 0.38818359 C14.36421756 0.45871981 16.88744222 0.55721805 19.4128418 0.68115234 C18.4228418 2.66115234 17.4328418 4.64115234 16.4128418 6.68115234 C8.4928418 6.68115234 0.5728418 6.68115234 -7.5871582 6.68115234 C-2.5871582 0.68115234 -2.5871582 0.68115234 0 0 Z " fill="#58595B" transform="translate(1454.587158203125,253.31884765625)"/>
<path d="M0 0 C3.625 -0.1875 3.625 -0.1875 7 0 C6.67 1.32 6.34 2.64 6 4 C8.64 4 11.28 4 14 4 C12.70351637 6.89215578 11.49710993 9.01798898 9 11 C6.58984375 11.36328125 6.58984375 11.36328125 3.9375 11.3125 C3.05964844 11.30863281 2.18179687 11.30476563 1.27734375 11.30078125 C-1 11 -1 11 -3 9 C-2.67582137 5.19090105 -2.14418558 3.21627837 0 0 Z " fill="#58595B" transform="translate(1797,285)"/>
<path d="M0 0 C3.625 -0.1875 3.625 -0.1875 7 0 C6.67 0.99 6.34 1.98 6 3 C8.31 3.33 10.62 3.66 13 4 C12.43439388 7.28051547 11.64306185 8.94493208 9 11 C6.58984375 11.328125 6.58984375 11.328125 3.9375 11.25 C3.05964844 11.23453125 2.18179687 11.2190625 1.27734375 11.203125 C-1 11 -1 11 -3 10 C-2.25 3.375 -2.25 3.375 0 0 Z " fill="#58595B" transform="translate(1807,268)"/>
<path d="M0 0 C2.31 0 4.62 0 7 0 C6.46823628 4.51999163 4.97021532 7.54812814 2 11 C-1.25 11.375 -1.25 11.375 -4 11 C-3.39301257 6.87248551 -1.96189209 3.6678852 0 0 Z " fill="#58595B" transform="translate(1867,233)"/>
</svg>
