<?xml version="1.0" encoding="UTF-8" standalone="no"?>
<svg
   xmlns:dc="http://purl.org/dc/elements/1.1/"
   xmlns:cc="http://creativecommons.org/ns#"
   xmlns:rdf="http://www.w3.org/1999/02/22-rdf-syntax-ns#"
   xmlns:svg="http://www.w3.org/2000/svg"
   xmlns="http://www.w3.org/2000/svg"
   xmlns:sodipodi="http://sodipodi.sourceforge.net/DTD/sodipodi-0.dtd"
   xmlns:inkscape="http://www.inkscape.org/namespaces/inkscape"
   width="106"
   height="32"
   viewBox="0 0 106 32"
   fill="none"
   version="1.1"
   id="svg13"
   sodipodi:docname="tkf5jrycfekme32615c.svg"
   inkscape:version="1.0.1 (3bc2e813f5, 2020-09-07)">
  <metadata
     id="metadata17">
    <rdf:RDF>
      <cc:Work
         rdf:about="">
        <dc:format>image/svg+xml</dc:format>
        <dc:type
           rdf:resource="http://purl.org/dc/dcmitype/StillImage" />
      </cc:Work>
    </rdf:RDF>
  </metadata>
  <sodipodi:namedview
     pagecolor="#ffffff"
     bordercolor="#666666"
     borderopacity="1"
     objecttolerance="10"
     gridtolerance="10"
     guidetolerance="10"
     inkscape:pageopacity="0"
     inkscape:pageshadow="2"
     inkscape:window-width="1920"
     inkscape:window-height="1001"
     id="namedview15"
     showgrid="false"
     inkscape:zoom="11.462264"
     inkscape:cx="53"
     inkscape:cy="16"
     inkscape:window-x="-9"
     inkscape:window-y="-9"
     inkscape:window-maximized="1"
     inkscape:current-layer="svg13" />
  <g
     clip-path="url(#clip0_8561_1913)"
     id="g6"
     style="fill:#000000">
    <path
       d="M31.8547 17.6711C33.7723 15.0281 40.9432 13.2087 41.758 15.7965C40.0911 17.1833 36.1341 18.4854 31.0865 19.6632C31.1344 19.1859 31.3741 18.3336 31.8547 17.6711ZM45.4538 20.329C41.4865 21.4444 35.7349 23.3993 32.1882 21.6655C38.829 19.947 43.6698 18.2285 44.3568 17.5402C46.8546 14.9824 42.6981 12.0538 39.4932 11.9662C36.0355 11.8716 30.3986 13.0077 27.7199 17.2888C27.1236 18.3091 26.9051 19.3843 27.0011 20.4043C12.2211 22.3523 8.98112 22.0895 7.41666 21.2842C3.52612 19.281 15.0865 5.8357 30.7981 0.777049L26.7257 0C15.3079 3.28629 -3.14246 15.2232 0.504436 23.9159C3.47404 28.7823 21.0255 24.6135 27.8585 22.726C28.5347 23.6756 29.5785 24.4193 30.9472 24.7711C37.7105 26.1226 44.1491 23.2033 50.5346 20.9823C47.7653 24.2485 43.9203 28.9015 41.3958 31.8863H45.5896C49.8392 26.8414 52.3877 22.942 56.8719 16.525C52.7712 18.0175 49.6664 19.1481 45.4538 20.329Z"
       fill="white"
       id="path2"
       style="fill:#000000" />
    <path
       d="M101.212 18.8482C101.218 18.8484 101.224 18.8486 101.23 18.8489C101.231 18.8597 101.223 18.8568 101.212 18.8482ZM72.4213 21.9098C71.6485 20.173 75.6966 14.2312 83.125 14.4474C79.8427 18.9369 73.1602 23.5707 72.4213 21.9098ZM102.78 18.3483C99.9153 17.7128 97.2299 18.2161 95.3192 17.5247C91.0658 15.9852 99.1197 13.6307 104.756 14.3722L105.958 12.8891C92.9424 11.3803 88.9026 16.1315 90.6487 17.7525C88.6625 19.3258 84.9391 21.4989 84.757 20.7792C84.2388 18.7323 88.0395 13.3087 88.9847 12.3734C76.7914 10.761 70.1698 17.2111 68.6884 21.3135C65.3442 22.5463 60.0614 23.9272 57.5799 23.6469C63.7793 21.9919 70.0566 17.6276 69.5113 14.7217C68.7199 10.5055 61.0896 11.3053 50.2568 15.943L49.875 17.5664C60.7283 15.0526 64.7389 13.5287 64.9082 16.011C65.0046 17.4248 60.7925 21.3365 53.7642 23.8932C53.3111 24.058 53.5727 25.2606 54.0546 25.3182C59.3333 25.9496 64.2781 25.1235 68.3931 23.1973C68.7766 25.8463 74.0147 26.2949 81.5272 19.2064C80.4418 22.6964 80.7632 29.9142 92.2768 19.3209C93.8152 20.271 101.182 18.7654 101.012 20.6987C100.808 23.0093 92.9419 23.6182 89.6839 23.1358L88.7243 24.2829C96.6954 25.4175 104.912 24.3983 105.014 20.5932C105.029 20.0605 105.068 18.8559 102.78 18.3483Z"
       fill="white"
       id="path4"
       style="fill:#000000" />
  </g>
  <defs
     id="defs11">
    <clipPath
       id="clip0_8561_1913">
      <rect
         width="105.931"
         height="32"
         fill="white"
         transform="translate(0.0351562)"
         id="rect8" />
    </clipPath>
  </defs>
</svg>
