<?xml version="1.0" encoding="UTF-8"?>
<svg version="1.1" xmlns="http://www.w3.org/2000/svg" viewBox="0 -118 502 502" width="502" height="502">
<path d="M0 0 C0.84012131 -0.00043808 1.68024261 -0.00087616 2.54582214 -0.00132751 C5.28917683 0.00074226 8.03190018 0.0239865 10.77514648 0.04760742 C12.69042121 0.05320984 14.60570026 0.05747688 16.52098083 0.06047058 C21.53679488 0.07186851 26.55234406 0.10129174 31.5680542 0.13458252 C36.69629332 0.16539283 41.82457566 0.17899925 46.95288086 0.1940918 C56.99661637 0.22616666 67.04015618 0.27730129 77.08374023 0.34057617 C78.00134735 3.29073317 78.20415526 4.05088014 76.96655273 7.02832031 C76.38647461 8.05046631 75.80639648 9.0726123 75.20874023 10.12573242 C74.89302063 10.69029648 74.57730103 11.25486053 74.25201416 11.83653259 C73.20723338 13.69867815 72.14558509 15.55061665 71.08374023 17.40307617 C70.34913313 18.70512937 69.61575053 20.00787411 68.88354492 21.3112793 C67.37055971 24.00148425 65.85149298 26.68811474 64.32788086 29.37231445 C62.22827759 33.07678819 60.15754784 36.79655334 58.09936523 40.52416992 C52.21332971 51.18236033 46.28468554 61.81617979 40.27124023 72.40307617 C39.52438965 73.7246875 39.52438965 73.7246875 38.76245117 75.07299805 C38.30515625 75.87415039 37.84786133 76.67530273 37.37670898 77.50073242 C36.78152466 78.54692749 36.78152466 78.54692749 36.17431641 79.61425781 C35.08374023 81.34057617 35.08374023 81.34057617 33.08374023 83.34057617 C30.41949288 83.53190078 27.85823243 83.59969727 25.19335938 83.58007812 C24.37858627 83.58209229 23.56381317 83.58410645 22.72434998 83.58618164 C20.95207624 83.58973198 19.17978985 83.58895412 17.40751839 83.5844059 C14.60457299 83.57882892 11.80204392 83.58794421 8.99913025 83.60160828 C1.02902405 83.63880835 -6.94094233 83.65725865 -14.91113281 83.64599609 C-19.78306185 83.64015437 -24.65440658 83.65836071 -29.52621651 83.69188499 C-31.38537527 83.69985618 -33.24459742 83.69853881 -35.1037426 83.68786049 C-37.70197229 83.67357956 -40.29835734 83.68975443 -42.89648438 83.71289062 C-43.66801849 83.70112289 -44.43955261 83.68935516 -45.23446655 83.67723083 C-47.62626284 83.66295639 -47.62626284 83.66295639 -50.91625977 84.34057617 C-51.90625977 85.99057617 -52.89625977 87.64057617 -53.91625977 89.34057617 C-26.52625977 89.34057617 0.86374023 89.34057617 29.08374023 89.34057617 C28.20505492 93.73400274 27.36802589 96.0091874 25.23217773 99.78588867 C24.63542236 100.84984863 24.03866699 101.91380859 23.42382812 103.01000977 C22.77534912 104.15034668 22.12687012 105.29068359 21.45874023 106.46557617 C20.78414486 107.66261829 20.11024649 108.86005345 19.43701172 110.05786133 C18.38841851 111.92288278 17.33913376 113.78748989 16.28715515 115.65060425 C13.84479639 119.97676243 11.43015256 124.31737109 9.03295898 128.66870117 C8.37428369 129.86255772 7.71559248 131.05640548 7.05688477 132.25024414 C5.82311531 134.48792925 4.5909061 136.72647564 3.3605957 138.96606445 C0.30016748 144.49748602 -2.83920158 149.97215138 -6.11938477 155.37573242 C-6.75392578 156.42124268 -7.3884668 157.46675293 -8.04223633 158.54394531 C-13.22887922 166.28404358 -19.90356728 170.27123053 -28.91625977 172.34057617 C-35.64781403 173.04571343 -42.44754496 172.83183338 -49.20532227 172.76635742 C-51.16018337 172.76142684 -53.11504922 172.75813232 -55.06991577 172.75639343 C-59.14303954 172.74879266 -63.21580694 172.72834049 -67.28881836 172.69726562 C-72.52015614 172.65742947 -77.75126428 172.63961043 -82.98273659 172.62995625 C-87.97362971 172.62001635 -92.96446647 172.60012909 -97.95532227 172.57885742 C-98.91040302 172.57546167 -99.86548378 172.57206593 -100.84950638 172.56856728 C-103.53279708 172.55705345 -106.21593853 172.53854891 -108.89916992 172.51757812 C-109.70115814 172.51488922 -110.50314636 172.51220032 -111.32943726 172.50942993 C-116.80134164 172.4554943 -116.80134164 172.4554943 -117.91625977 171.34057617 C-118.23051362 167.60044017 -117.73101817 165.40911932 -115.81860352 162.20776367 C-115.12275146 161.02005371 -115.12275146 161.02005371 -114.4128418 159.80834961 C-113.64109619 158.52492676 -113.64109619 158.52492676 -112.85375977 157.21557617 C-111.74391167 155.3233871 -110.63592764 153.43010379 -109.52954102 151.53588867 C-108.93995605 150.53074219 -108.35037109 149.5255957 -107.74291992 148.48999023 C-104.59758963 143.06700697 -101.57334217 137.57742682 -98.54125977 132.09057617 C-97.26296419 129.78309044 -95.98431718 127.47579935 -94.70532227 125.16870117 C-93.75834473 123.46037109 -93.75834473 123.46037109 -92.79223633 121.7175293 C-89.84779791 116.41723358 -86.8825685 111.12865408 -83.91625977 105.84057617 C-79.03914176 97.14487532 -74.18895237 88.43465411 -69.35375977 79.71557617 C-64.20226124 70.42924386 -59.02260197 61.15992321 -53.76855469 51.93115234 C-50.89786295 46.88199553 -48.07638715 41.81144996 -45.31079102 36.70385742 C-44.70243408 35.59026855 -44.09407715 34.47667969 -43.46728516 33.3293457 C-42.30824229 31.20482657 -41.15943182 29.07467624 -40.0234375 26.93774414 C-33.22189286 14.5298112 -24.92638729 5.35551804 -11.32954597 0.95883751 C-7.53139892 -0.01421221 -3.90200777 -0.05452974 0 0 Z " fill="#374866" transform="translate(417.916259765625,0.659423828125)"/>
<path d="M0 0 C11.02295666 -0.09298381 22.04581886 -0.16390851 33.06908894 -0.20724869 C38.18853495 -0.22805761 43.30771117 -0.25625209 48.42700195 -0.30175781 C53.37426058 -0.34545541 58.3212609 -0.36918737 63.26869774 -0.37950897 C65.14921315 -0.38685763 67.0297156 -0.40120711 68.91012001 -0.42292023 C82.73248836 -0.57607281 94.33098777 0.17644047 105 10 C110.40198517 15.44621286 114.10820009 21.28372305 117.625 28.0625 C118.67149574 30.02954126 119.71972843 31.99565923 120.76953125 33.9609375 C121.30271973 34.96350586 121.8359082 35.96607422 122.38525391 36.99902344 C124.95296065 41.77106023 127.6310755 46.47870698 130.3125 51.1875 C135.0658753 59.55867833 139.76900174 67.95618958 144.4375 76.375 C149.29554965 85.13456951 154.16588072 93.88692519 159.0625 102.625 C159.63677734 103.64980469 160.21105469 104.67460938 160.80273438 105.73046875 C162.53479651 108.82051436 164.26730703 111.91030808 166 115 C167.15370606 117.05725789 168.30735182 119.1145496 169.4609375 121.171875 C170.03505371 122.19555176 170.60916992 123.21922852 171.20068359 124.27392578 C172.35138921 126.32850306 173.50017764 128.38415536 174.64697266 130.44091797 C177.4591127 135.48274577 180.2875552 140.51342645 183.16819763 145.51638794 C184.58942065 147.98893952 185.99939273 150.46780925 187.4079895 152.9475708 C188.08887885 154.13964688 188.77490454 155.32880527 189.46627808 156.51483154 C190.42684407 158.16376848 191.36815866 159.8238745 192.30859375 161.484375 C192.85314209 162.43022461 193.39769043 163.37607422 193.95874023 164.35058594 C195.17584159 167.44741688 194.76554863 168.83742192 194 172 C182.71627402 172.09297124 171.43264024 172.16390223 160.14860821 172.20724869 C154.90809721 172.2280603 149.66784966 172.25625986 144.42749023 172.30175781 C139.36352283 172.34544559 134.2998077 172.36918536 129.23566628 172.37950897 C127.31049444 172.38685936 125.38533531 172.4012123 123.46027184 172.42292023 C109.70964907 172.57171216 98.3939163 172.26176092 87.96142578 162.20458984 C84.84259978 158.69911327 82.62426194 154.94660625 80.4375 150.8125 C79.94846191 149.92393311 79.45942383 149.03536621 78.95556641 148.11987305 C77.87854828 146.1594599 76.80921858 144.19480825 75.74658203 142.2265625 C73.86107725 138.74335992 71.94794256 135.27642438 70.02734375 131.8125 C67.61198832 127.45413278 65.20283623 123.09252253 62.80497742 118.72450256 C60.14881126 113.88594877 57.47817102 109.05679911 54.7578125 104.25390625 C54.2848877 103.41625732 53.81196289 102.5786084 53.32470703 101.71557617 C52.4689812 100.20362565 51.6083162 98.6944551 50.74169922 97.1887207 C48 92.33290405 48 92.33290405 48 89 C75.39 89 102.78 89 131 89 C130.01 87.35 129.02 85.7 128 84 C125.14189627 83.50867618 122.8710579 83.35859854 120.01196289 83.41992188 C118.79199364 83.41624352 118.79199364 83.41624352 117.54737854 83.41249084 C115.78110275 83.41031752 114.01478434 83.41961636 112.24861336 83.4389801 C109.45339485 83.46895656 106.65971102 83.46803214 103.86436462 83.4588623 C96.92238466 83.44255092 89.98087436 83.47998771 83.03900146 83.51544189 C77.17445865 83.54335641 71.3105654 83.55110083 65.44598198 83.53187561 C62.69126918 83.53125699 59.93788702 83.56046893 57.18336487 83.59069824 C55.49471802 83.58862384 53.80607212 83.58515864 52.11743164 83.58007812 C51.35106384 83.59655899 50.58469604 83.61303986 49.79510498 83.63002014 C45.95841395 83.58633052 44.36289177 83.35803115 41.58372498 80.61608887 C40.05956514 78.09839316 38.56378065 75.60184469 37.1875 73 C36.67598389 72.04198486 36.16446777 71.08396973 35.63745117 70.09692383 C35.09709229 69.07493896 34.5567334 68.0529541 34 67 C29.83200699 59.20822557 25.60431485 51.46604155 21.1875 43.8125 C19.12080403 40.21072607 17.05926039 36.6060299 15 33 C14.66452148 32.41319458 14.32904297 31.82638916 13.98339844 31.22180176 C11.73934921 27.29294186 9.51066207 23.35586805 7.29751587 19.40951538 C6.56136439 18.10169441 5.82082214 16.79633463 5.07577515 15.49356079 C4.03233264 13.66736762 3.00477932 11.83306864 1.98046875 9.99609375 C1.38129639 8.93575928 0.78212402 7.8754248 0.16479492 6.78295898 C-1.11213793 3.73207707 -0.94488857 3.01227122 0 0 Z " fill="#374866" transform="translate(2,1)"/>
<path d="M0 0 C2.36714249 1.07978547 2.98693249 1.93587578 4.27368164 4.17797852 C4.69665527 4.90388184 5.11962891 5.62978516 5.55541992 6.37768555 C6.01803223 7.20768066 6.48064453 8.03767578 6.95727539 8.89282227 C7.47789551 9.8117627 7.99851562 10.73070313 8.53491211 11.67749023 C10.33837568 14.88600787 12.11843874 18.10671146 13.89477539 21.33032227 C15.23496615 23.75402817 16.57670784 26.17687488 17.91821289 28.59985352 C18.25665726 29.21165466 18.59510162 29.82345581 18.94380188 30.45379639 C21.71469093 35.4610967 24.50317663 40.45838984 27.30102539 45.45068359 C28.44367112 47.48975437 29.58430855 49.52995188 30.72290039 51.57128906 C33.4357119 56.4290333 36.16773696 61.27296556 38.96284485 66.08395386 C39.9680375 67.81629016 40.96648632 69.55253389 41.96484375 71.28881836 C43.22468098 73.47827363 44.49585501 75.66125557 45.77978516 77.83666992 C46.62367798 79.31079346 46.62367798 79.31079346 47.48461914 80.81469727 C48.23859985 82.10778809 48.23859985 82.10778809 49.0078125 83.42700195 C50.18103286 86.47393579 49.96511367 87.81104224 48.95727539 90.89282227 C48.11940477 92.71232592 47.21119637 94.50027009 46.25415039 96.26000977 C45.69284424 97.29826904 45.13153809 98.33652832 44.55322266 99.40625 C43.94406006 100.51556885 43.33489746 101.6248877 42.70727539 102.76782227 C41.7616272 104.5062439 41.7616272 104.5062439 40.796875 106.27978516 C35.74411382 115.55138899 30.55908483 124.74747899 25.33618164 133.92407227 C22.85875042 138.28446922 20.41286778 142.66118947 17.98461914 147.04907227 C17.64878311 147.65566177 17.31294708 148.26225128 16.9669342 148.88722229 C15.33120703 151.84308256 13.69838098 154.80048255 12.06884766 157.75976562 C10.38072 160.81324012 8.67038201 163.85332074 6.95727539 166.89282227 C6.50481445 167.73731934 6.05235352 168.58181641 5.58618164 169.4519043 C4.33227539 171.67797852 4.33227539 171.67797852 1.95727539 174.89282227 C-0.51171875 175.35668945 -0.51171875 175.35668945 -3.04272461 174.89282227 C-4.59521484 173.15136719 -4.59521484 173.15136719 -5.91381836 170.68579102 C-6.41896973 169.76846191 -6.92412109 168.85113281 -7.44458008 167.90600586 C-7.97196777 166.91165527 -8.49935547 165.91730469 -9.04272461 164.89282227 C-10.17741462 162.86694506 -11.31420398 160.84224253 -12.45288086 158.81860352 C-13.67177734 156.61497706 -14.88916518 154.4105156 -16.10522461 152.20532227 C-17.43726543 149.79705343 -18.77100192 147.38972664 -20.10522461 144.98266602 C-20.60488487 144.08097687 -20.60488487 144.08097687 -21.11463928 143.16107178 C-24.24766429 137.51261521 -27.42198789 131.88807847 -30.60522461 126.26782227 C-31.12044678 125.35307129 -31.63566895 124.43832031 -32.16650391 123.49584961 C-35.07062227 118.3446736 -38.01487784 113.22033526 -40.99975586 108.11547852 C-42.30579195 105.85378662 -43.61178255 103.59206846 -44.91772461 101.33032227 C-45.54364502 100.27699707 -46.16956543 99.22367187 -46.81445312 98.13842773 C-47.38220459 97.14858887 -47.94995605 96.15875 -48.53491211 95.13891602 C-49.29843994 93.83458618 -49.29843994 93.83458618 -50.07739258 92.50390625 C-51.32308364 89.1344915 -51.00354815 87.33745048 -50.04272461 83.89282227 C-48.68261719 80.94628906 -48.68261719 80.94628906 -46.93725586 77.84204102 C-46.62176788 77.27511032 -46.30627991 76.70817963 -45.98123169 76.12406921 C-44.94757255 74.27134062 -43.90152114 72.42593864 -42.85522461 70.58032227 C-42.1253252 69.2775554 -41.39625104 67.97432586 -40.66796875 66.6706543 C-38.81798765 63.36341528 -36.9581891 60.0618134 -35.0958252 56.76153564 C-32.94430954 52.94369892 -30.80962336 49.11643445 -28.67163086 45.29101562 C-27.54596804 43.27902331 -26.41836952 41.26811272 -25.28881836 39.25830078 C-22.14616593 33.6665189 -19.029549 28.06155928 -15.94116211 22.43969727 C-14.91316293 20.57281046 -13.88484354 18.70610033 -12.85647583 16.8394165 C-12.19499678 15.63597585 -11.53535382 14.43152396 -10.87765503 13.22601318 C-9.96458139 11.55255792 -9.04480859 9.88276316 -8.12475586 8.21313477 C-7.60115479 7.25681152 -7.07755371 6.30048828 -6.53808594 5.31518555 C-3.15476134 -0.16552411 -3.15476134 -0.16552411 0 0 Z " fill="#374866" transform="translate(249.042724609375,85.107177734375)"/>
</svg>
