<svg width="273" height="55" viewBox="0 0 273 55" fill="none" xmlns="http://www.w3.org/2000/svg">
<path d="M10.3194 19.004H11.056C16.5477 19.004 22.0394 19.004 27.5311 19.004C28.3303 19.004 28.3372 18.9502 27.9759 18.2339C27.6823 17.6512 27.2809 17.4396 26.6208 17.4413C21.1656 17.4638 15.7086 17.4465 10.2534 17.4656C9.61927 17.4673 9.25616 17.2523 8.94692 16.6955C6.05601 11.4715 3.13729 6.26308 0.229004 1.04946C-0.20359 0.274184 -0.0402814 0.00361689 0.861392 0.00361689C6.10291 0.00361689 11.3462 0.000148081 16.5877 0.00361689C19.873 0.00535129 22.3417 1.44837 23.9418 4.29279C29.7705 14.6506 35.5784 25.0206 41.3933 35.3854C41.8224 36.1503 41.64 36.4573 40.7609 36.4573C35.1806 36.4573 29.5985 36.4729 24.0182 36.4504C21.4227 36.4399 19.3952 35.3195 18.1113 33.0613C15.5557 28.5675 13.0574 24.0407 10.5366 19.5261C10.4706 19.4064 10.4289 19.2728 10.3177 19.004H10.3194Z" fill="#384967"/>
<path d="M95.1827 19.0039C95.0298 19.3074 94.9586 19.4652 94.8752 19.6144C92.3908 24.0648 89.9186 28.524 87.4116 32.9641C86.1017 35.283 84.062 36.4433 81.4005 36.452C75.8393 36.4693 70.2763 36.4572 64.7134 36.4572C63.8031 36.4572 63.6363 36.1606 64.0897 35.3523C69.8768 25.0344 75.6621 14.713 81.4543 4.39672C83.0944 1.47599 85.5857 -0.00518955 88.9631 1.36609e-05C94.1507 0.00868567 99.3384 0.00174806 104.526 0.00174806C104.58 0.00174806 104.634 0.00174806 104.686 0.00174806C105.489 0.00868567 105.659 0.284456 105.273 0.976482C104.038 3.19652 102.797 5.41308 101.56 7.63139C99.8978 10.6094 98.2161 13.5769 96.5917 16.574C96.2233 17.2539 95.7838 17.4724 95.0315 17.4672C89.6476 17.4377 84.2636 17.4516 78.8796 17.4516C77.9936 17.4516 77.5141 17.7932 77.2969 18.624C77.2708 18.7212 77.4098 18.9241 77.5227 18.9796C77.653 19.0438 77.8355 19.0021 77.997 19.0021C83.4696 19.0021 88.9422 19.0021 94.4165 19.0021H95.1844L95.1827 19.0039Z" fill="#384967"/>
<path d="M63.3947 36.5421C63.3027 36.7554 63.2419 36.9393 63.1481 37.1075C59.9201 42.8935 56.6921 48.6795 53.4433 54.455C53.3009 54.7083 52.9656 54.9858 52.7067 54.9996C52.4861 55.0118 52.1629 54.7048 52.0257 54.4602C48.7873 48.7003 45.5715 42.9265 42.3383 37.163C42.0951 36.7294 42.076 36.3773 42.3262 35.9316C45.5559 30.1855 48.7682 24.4308 51.984 18.6778C52.1577 18.3673 52.3228 17.9528 52.7449 18.0673C53.0229 18.1418 53.3165 18.4107 53.4624 18.6708C56.6939 24.4152 59.9062 30.1682 63.1203 35.9229C63.2297 36.1189 63.3044 36.3357 63.3947 36.5421Z" fill="#384967"/>
<path d="M272.99 35.5067H272.395C264.906 35.5067 257.418 35.5032 249.928 35.5154C249.534 35.5154 249.266 35.394 248.999 35.1199C248.003 34.1018 246.975 33.1149 245.986 32.0917C245.813 31.9113 245.674 31.6095 245.672 31.3632C245.651 28.2708 245.651 25.1783 245.672 22.0859C245.672 21.8379 245.806 21.5343 245.979 21.354C247.006 20.2908 248.054 19.2501 249.117 18.2234C249.275 18.0707 249.541 17.9476 249.758 17.9476C257.371 17.9337 264.986 17.9355 272.599 17.9372C272.72 17.9372 272.842 17.9528 273 17.9632V22.1917H272.309C265.425 22.1917 258.544 22.1917 251.66 22.1917C250.776 22.1917 250.705 22.2593 250.703 23.1196C250.703 25.2876 250.701 27.4556 250.703 29.6253C250.703 30.3919 250.788 30.4735 251.572 30.4735C256.779 30.4735 261.985 30.4735 267.192 30.4735C267.317 30.4735 267.456 30.4995 267.562 30.4544C267.71 30.3902 267.941 30.2671 267.939 30.1717C267.937 30.0225 267.804 29.797 267.668 29.7398C267.031 29.471 266.372 29.2472 265.722 29.0096C264.865 28.6974 264.45 28.0852 264.475 27.1729C264.478 27.0688 264.492 26.963 264.506 26.8139H272.988V35.5102L272.99 35.5067Z" fill="#384967"/>
<path d="M135.506 35.479C135.305 35.4894 135.133 35.505 134.959 35.505C132.535 35.505 130.11 35.5171 127.686 35.4911C127.403 35.4876 127.063 35.3489 126.849 35.1616C125.221 33.7237 123.619 32.2582 122.009 30.803C121.892 30.6972 121.766 30.6036 121.616 30.4804C120.82 31.1985 120.042 31.8992 119.266 32.5999C118.301 33.4705 117.346 34.3516 116.369 35.2084C116.199 35.3576 115.942 35.4911 115.725 35.4928C113.176 35.5119 110.628 35.505 108.077 35.5032C107.99 35.5032 107.905 35.4876 107.778 35.4755V17.9736H112.742C112.752 18.1956 112.773 18.4176 112.773 18.6396C112.775 22.2819 112.775 25.9241 112.777 29.5664C112.777 29.7259 112.749 29.8942 112.789 30.0433C112.83 30.2012 112.907 30.418 113.027 30.4683C113.143 30.5168 113.373 30.4284 113.487 30.3278C114.358 29.5646 115.212 28.7859 116.071 28.0089C117.827 26.4219 119.582 24.8332 121.338 23.2445C121.416 23.1734 121.501 23.1092 121.627 23.0051C121.774 23.1283 121.924 23.2445 122.064 23.3711C124.573 25.638 127.078 27.91 129.596 30.1682C129.771 30.326 130.042 30.3763 130.27 30.4769C130.332 30.2497 130.449 30.0243 130.45 29.7971C130.463 26.0837 130.459 22.3703 130.461 18.657C130.461 18.4454 130.461 18.2355 130.461 17.9788H135.51V35.4755L135.506 35.479Z" fill="#384967"/>
<path d="M212.704 35.4737V17.9337C213.37 17.9337 214.006 17.9303 214.641 17.9337C215.693 17.9407 216.81 17.7343 217.776 18.0239C218.722 18.3084 219.516 19.0992 220.376 19.6733C224.98 22.7467 229.581 25.8235 234.19 28.8917C234.367 29.0096 234.603 29.0408 234.812 29.1137C234.869 28.9038 234.977 28.694 234.977 28.4841C234.987 25.1974 234.984 21.909 234.984 18.6223C234.984 18.4142 234.984 18.2043 234.984 17.9667H240.027V35.5084C239.369 35.5084 238.716 35.5119 238.062 35.5084C237.029 35.5032 235.931 35.7096 234.98 35.4252C234.051 35.1477 233.269 34.3724 232.425 33.8087C227.805 30.7284 223.187 27.6429 218.563 24.5696C218.372 24.4429 218.12 24.4048 217.895 24.325C217.835 24.5539 217.722 24.7811 217.722 25.0101C217.71 28.2794 217.713 31.5488 217.713 34.8199V35.4772H212.706L212.704 35.4737Z" fill="#384967"/>
<path d="M163.486 17.9615H168.488C168.5 18.1869 168.519 18.3933 168.521 18.598C168.522 22.8091 168.519 27.022 168.529 31.2331C168.529 31.6147 168.435 31.8939 168.152 32.1679C167.113 33.1687 166.113 34.2059 165.074 35.2049C164.905 35.3662 164.619 35.4893 164.387 35.4911C158.024 35.5067 151.658 35.5067 145.294 35.4911C145.061 35.4911 144.773 35.3662 144.604 35.2049C143.527 34.1677 142.469 33.1115 141.423 32.0431C141.279 31.8956 141.151 31.6528 141.151 31.4551C141.137 27.0306 141.14 22.6062 141.144 18.18C141.144 18.128 141.159 18.0759 141.173 17.9805H146.172C146.184 18.1904 146.206 18.4141 146.206 18.6379C146.208 22.2992 146.206 25.9588 146.208 29.6201C146.208 30.4023 146.274 30.4717 147.061 30.4717C152.249 30.4734 157.436 30.4734 162.626 30.4717C163.399 30.4717 163.489 30.3763 163.491 29.6132C163.491 25.9518 163.491 22.2923 163.491 18.6309V17.9597L163.486 17.9615Z" fill="#384967"/>
<path d="M174.174 17.965H179.189V18.5737C179.189 22.1449 179.189 25.716 179.189 29.2854C179.189 30.0763 179.579 30.4723 180.359 30.4735C185.439 30.4735 190.517 30.4735 195.597 30.4735H196.373V35.479C196.203 35.4876 196.015 35.5032 195.828 35.5032C189.999 35.5032 184.172 35.5084 178.343 35.4911C178.081 35.4911 177.758 35.3524 177.567 35.1702C176.5 34.1504 175.458 33.1028 174.426 32.0466C174.269 31.887 174.136 31.6251 174.136 31.4101C174.118 27.0584 174.123 22.7051 174.125 18.3535C174.125 18.2321 174.155 18.1124 174.176 17.9684L174.174 17.965Z" fill="#384967"/>
<path d="M202.035 35.4668V17.9823H207.013V35.4668H202.035Z" fill="#384967"/>
</svg>
